ISO-10303-21;
HEADER;
/* Generated by software containing ST-Developer
 * from STEP Tools, Inc. (www.steptools.com) 
 */
/* OPTION: using custom renumber hook */

FILE_DESCRIPTION(
/* description */ ('STEP AP242',
'CAx-IF Rec.Pracs.---Representation and Presentation of Product Manufa
cturing Information (PMI)---4.0---2014-10-13',
'CAx-IF Rec.Pracs.---3D Tessellated Geometry---0.4---2014-09-14','2;1',
'CAx-IF Rec.Pracs.---User Defined Attributes---1.5---2016-08-15'),
/* implementation_level */ '2;1');

FILE_NAME(
/* name */ '69062ba8d49f16a08f5393f8',
/* time_stamp */ '2025-11-01T15:47:53Z',
/* author */ (''),
/* organization */ (''),
/* preprocessor_version */ 'ST-DEVELOPER v20',
/* originating_system */ 'ONSHAPE BY PTC INC, 1.206',
/* authorisation */ '  ');

FILE_SCHEMA (('AP242_MANAGED_MODEL_BASED_3D_ENGINEERING_MIM_LF { 1 0 10303 442 1 1 4 }'));
ENDSEC;

DATA;
#10=SHAPE_REPRESENTATION_RELATIONSHIP('','',#551,#11);
#11=ADVANCED_BREP_SHAPE_REPRESENTATION('',(#549),#905);
#12=CYLINDRICAL_SURFACE('',#585,0.0041);
#13=CYLINDRICAL_SURFACE('',#590,0.0041);
#14=CYLINDRICAL_SURFACE('',#591,0.0041);
#15=CYLINDRICAL_SURFACE('',#593,0.0041);
#16=CYLINDRICAL_SURFACE('',#595,0.0015);
#17=CYLINDRICAL_SURFACE('',#598,0.0035);
#18=CYLINDRICAL_SURFACE('',#599,0.003);
#19=CYLINDRICAL_SURFACE('',#600,0.003);
#20=CYLINDRICAL_SURFACE('',#601,0.003);
#21=CYLINDRICAL_SURFACE('',#602,0.003);
#22=CYLINDRICAL_SURFACE('',#603,0.003);
#23=CYLINDRICAL_SURFACE('',#604,0.003);
#24=CYLINDRICAL_SURFACE('',#605,0.003);
#25=CYLINDRICAL_SURFACE('',#606,0.003);
#26=LINE('',#768,#66);
#27=LINE('',#770,#67);
#28=LINE('',#772,#68);
#29=LINE('',#776,#69);
#30=LINE('',#778,#70);
#31=LINE('',#780,#71);
#32=LINE('',#793,#72);
#33=LINE('',#795,#73);
#34=LINE('',#797,#74);
#35=LINE('',#801,#75);
#36=LINE('',#803,#76);
#37=LINE('',#805,#77);
#38=LINE('',#820,#78);
#39=LINE('',#822,#79);
#40=LINE('',#824,#80);
#41=LINE('',#828,#81);
#42=LINE('',#830,#82);
#43=LINE('',#832,#83);
#44=LINE('',#849,#84);
#45=LINE('',#851,#85);
#46=LINE('',#853,#86);
#47=LINE('',#857,#87);
#48=LINE('',#859,#88);
#49=LINE('',#861,#89);
#50=LINE('',#867,#90);
#51=LINE('',#868,#91);
#52=LINE('',#870,#92);
#53=LINE('',#871,#93);
#54=LINE('',#872,#94);
#55=LINE('',#873,#95);
#56=LINE('',#875,#96);
#57=LINE('',#876,#97);
#58=LINE('',#877,#98);
#59=LINE('',#879,#99);
#60=LINE('',#880,#100);
#61=LINE('',#881,#101);
#62=LINE('',#883,#102);
#63=LINE('',#884,#103);
#64=LINE('',#885,#104);
#65=LINE('',#886,#105);
#66=VECTOR('',#619,1.);
#67=VECTOR('',#620,1.);
#68=VECTOR('',#621,1.);
#69=VECTOR('',#624,1.);
#70=VECTOR('',#625,1.);
#71=VECTOR('',#626,1.);
#72=VECTOR('',#639,1.);
#73=VECTOR('',#640,1.);
#74=VECTOR('',#641,1.);
#75=VECTOR('',#644,1.);
#76=VECTOR('',#645,1.);
#77=VECTOR('',#646,1.);
#78=VECTOR('',#661,1.);
#79=VECTOR('',#662,1.);
#80=VECTOR('',#663,1.);
#81=VECTOR('',#666,1.);
#82=VECTOR('',#667,1.);
#83=VECTOR('',#668,1.);
#84=VECTOR('',#685,1.);
#85=VECTOR('',#686,1.);
#86=VECTOR('',#687,1.);
#87=VECTOR('',#690,1.);
#88=VECTOR('',#691,1.);
#89=VECTOR('',#692,1.);
#90=VECTOR('',#699,1.);
#91=VECTOR('',#700,1.);
#92=VECTOR('',#703,1.);
#93=VECTOR('',#704,1.);
#94=VECTOR('',#705,1.);
#95=VECTOR('',#706,1.);
#96=VECTOR('',#709,1.);
#97=VECTOR('',#710,1.);
#98=VECTOR('',#711,1.);
#99=VECTOR('',#714,1.);
#100=VECTOR('',#715,1.);
#101=VECTOR('',#716,1.);
#102=VECTOR('',#719,1.);
#103=VECTOR('',#720,1.);
#104=VECTOR('',#721,1.);
#105=VECTOR('',#722,1.);
#106=ORIENTED_EDGE('',*,*,#242,.T.);
#107=ORIENTED_EDGE('',*,*,#243,.F.);
#108=ORIENTED_EDGE('',*,*,#244,.F.);
#109=ORIENTED_EDGE('',*,*,#245,.F.);
#110=ORIENTED_EDGE('',*,*,#246,.T.);
#111=ORIENTED_EDGE('',*,*,#247,.T.);
#112=ORIENTED_EDGE('',*,*,#248,.F.);
#113=ORIENTED_EDGE('',*,*,#249,.T.);
#114=ORIENTED_EDGE('',*,*,#250,.F.);
#115=ORIENTED_EDGE('',*,*,#251,.F.);
#116=ORIENTED_EDGE('',*,*,#252,.T.);
#117=ORIENTED_EDGE('',*,*,#253,.F.);
#118=ORIENTED_EDGE('',*,*,#254,.T.);
#119=ORIENTED_EDGE('',*,*,#255,.F.);
#120=ORIENTED_EDGE('',*,*,#256,.F.);
#121=ORIENTED_EDGE('',*,*,#257,.T.);
#122=ORIENTED_EDGE('',*,*,#258,.F.);
#123=ORIENTED_EDGE('',*,*,#259,.T.);
#124=ORIENTED_EDGE('',*,*,#260,.T.);
#125=ORIENTED_EDGE('',*,*,#261,.F.);
#126=ORIENTED_EDGE('',*,*,#262,.T.);
#127=ORIENTED_EDGE('',*,*,#263,.F.);
#128=ORIENTED_EDGE('',*,*,#264,.F.);
#129=ORIENTED_EDGE('',*,*,#265,.T.);
#130=ORIENTED_EDGE('',*,*,#266,.T.);
#131=ORIENTED_EDGE('',*,*,#267,.T.);
#132=ORIENTED_EDGE('',*,*,#268,.T.);
#133=ORIENTED_EDGE('',*,*,#269,.T.);
#134=ORIENTED_EDGE('',*,*,#270,.T.);
#135=ORIENTED_EDGE('',*,*,#271,.F.);
#136=ORIENTED_EDGE('',*,*,#272,.T.);
#137=ORIENTED_EDGE('',*,*,#273,.T.);
#138=ORIENTED_EDGE('',*,*,#274,.F.);
#139=ORIENTED_EDGE('',*,*,#275,.T.);
#140=ORIENTED_EDGE('',*,*,#276,.F.);
#141=ORIENTED_EDGE('',*,*,#277,.F.);
#142=ORIENTED_EDGE('',*,*,#278,.T.);
#143=ORIENTED_EDGE('',*,*,#279,.F.);
#144=ORIENTED_EDGE('',*,*,#280,.F.);
#145=ORIENTED_EDGE('',*,*,#281,.T.);
#146=ORIENTED_EDGE('',*,*,#282,.F.);
#147=ORIENTED_EDGE('',*,*,#283,.F.);
#148=ORIENTED_EDGE('',*,*,#284,.F.);
#149=ORIENTED_EDGE('',*,*,#285,.T.);
#150=ORIENTED_EDGE('',*,*,#286,.T.);
#151=ORIENTED_EDGE('',*,*,#287,.F.);
#152=ORIENTED_EDGE('',*,*,#288,.T.);
#153=ORIENTED_EDGE('',*,*,#289,.F.);
#154=ORIENTED_EDGE('',*,*,#290,.F.);
#155=ORIENTED_EDGE('',*,*,#291,.T.);
#156=ORIENTED_EDGE('',*,*,#292,.F.);
#157=ORIENTED_EDGE('',*,*,#293,.T.);
#158=ORIENTED_EDGE('',*,*,#288,.F.);
#159=ORIENTED_EDGE('',*,*,#294,.T.);
#160=ORIENTED_EDGE('',*,*,#261,.T.);
#161=ORIENTED_EDGE('',*,*,#295,.F.);
#162=ORIENTED_EDGE('',*,*,#291,.F.);
#163=ORIENTED_EDGE('',*,*,#296,.F.);
#164=ORIENTED_EDGE('',*,*,#271,.T.);
#165=ORIENTED_EDGE('',*,*,#297,.F.);
#166=ORIENTED_EDGE('',*,*,#252,.F.);
#167=ORIENTED_EDGE('',*,*,#298,.T.);
#168=ORIENTED_EDGE('',*,*,#258,.T.);
#169=ORIENTED_EDGE('',*,*,#299,.F.);
#170=ORIENTED_EDGE('',*,*,#300,.T.);
#171=ORIENTED_EDGE('',*,*,#289,.T.);
#172=ORIENTED_EDGE('',*,*,#295,.T.);
#173=ORIENTED_EDGE('',*,*,#260,.F.);
#174=ORIENTED_EDGE('',*,*,#301,.F.);
#175=ORIENTED_EDGE('',*,*,#250,.T.);
#176=ORIENTED_EDGE('',*,*,#302,.T.);
#177=ORIENTED_EDGE('',*,*,#273,.F.);
#178=ORIENTED_EDGE('',*,*,#294,.F.);
#179=ORIENTED_EDGE('',*,*,#287,.T.);
#180=ORIENTED_EDGE('',*,*,#303,.F.);
#181=ORIENTED_EDGE('',*,*,#275,.F.);
#182=ORIENTED_EDGE('',*,*,#304,.F.);
#183=ORIENTED_EDGE('',*,*,#248,.T.);
#184=ORIENTED_EDGE('',*,*,#305,.T.);
#185=ORIENTED_EDGE('',*,*,#262,.F.);
#186=ORIENTED_EDGE('',*,*,#285,.F.);
#187=ORIENTED_EDGE('',*,*,#306,.T.);
#188=ORIENTED_EDGE('',*,*,#264,.T.);
#189=ORIENTED_EDGE('',*,*,#307,.F.);
#190=ORIENTED_EDGE('',*,*,#246,.F.);
#191=ORIENTED_EDGE('',*,*,#308,.T.);
#192=ORIENTED_EDGE('',*,*,#277,.T.);
#193=ORIENTED_EDGE('',*,*,#309,.T.);
#194=ORIENTED_EDGE('',*,*,#306,.F.);
#195=ORIENTED_EDGE('',*,*,#284,.T.);
#196=ORIENTED_EDGE('',*,*,#299,.T.);
#197=ORIENTED_EDGE('',*,*,#257,.F.);
#198=ORIENTED_EDGE('',*,*,#270,.F.);
#199=ORIENTED_EDGE('',*,*,#308,.F.);
#200=ORIENTED_EDGE('',*,*,#245,.T.);
#201=ORIENTED_EDGE('',*,*,#297,.T.);
#202=ORIENTED_EDGE('',*,*,#263,.T.);
#203=ORIENTED_EDGE('',*,*,#305,.F.);
#204=ORIENTED_EDGE('',*,*,#247,.F.);
#205=ORIENTED_EDGE('',*,*,#307,.T.);
#206=ORIENTED_EDGE('',*,*,#304,.T.);
#207=ORIENTED_EDGE('',*,*,#274,.T.);
#208=ORIENTED_EDGE('',*,*,#302,.F.);
#209=ORIENTED_EDGE('',*,*,#249,.F.);
#210=ORIENTED_EDGE('',*,*,#259,.F.);
#211=ORIENTED_EDGE('',*,*,#298,.F.);
#212=ORIENTED_EDGE('',*,*,#251,.T.);
#213=ORIENTED_EDGE('',*,*,#301,.T.);
#214=ORIENTED_EDGE('',*,*,#253,.T.);
#215=ORIENTED_EDGE('',*,*,#265,.F.);
#216=ORIENTED_EDGE('',*,*,#286,.F.);
#217=ORIENTED_EDGE('',*,*,#309,.F.);
#218=ORIENTED_EDGE('',*,*,#276,.T.);
#219=ORIENTED_EDGE('',*,*,#303,.T.);
#220=ORIENTED_EDGE('',*,*,#290,.T.);
#221=ORIENTED_EDGE('',*,*,#300,.F.);
#222=ORIENTED_EDGE('',*,*,#272,.F.);
#223=ORIENTED_EDGE('',*,*,#296,.T.);
#224=ORIENTED_EDGE('',*,*,#278,.F.);
#225=ORIENTED_EDGE('',*,*,#292,.T.);
#226=ORIENTED_EDGE('',*,*,#283,.T.);
#227=ORIENTED_EDGE('',*,*,#256,.T.);
#228=ORIENTED_EDGE('',*,*,#282,.T.);
#229=ORIENTED_EDGE('',*,*,#255,.T.);
#230=ORIENTED_EDGE('',*,*,#281,.F.);
#231=ORIENTED_EDGE('',*,*,#266,.F.);
#232=ORIENTED_EDGE('',*,*,#293,.F.);
#233=ORIENTED_EDGE('',*,*,#267,.F.);
#234=ORIENTED_EDGE('',*,*,#244,.T.);
#235=ORIENTED_EDGE('',*,*,#269,.F.);
#236=ORIENTED_EDGE('',*,*,#243,.T.);
#237=ORIENTED_EDGE('',*,*,#268,.F.);
#238=ORIENTED_EDGE('',*,*,#242,.F.);
#239=ORIENTED_EDGE('',*,*,#279,.T.);
#240=ORIENTED_EDGE('',*,*,#254,.F.);
#241=ORIENTED_EDGE('',*,*,#280,.T.);
#242=EDGE_CURVE('',#310,#310,#362,.F.);
#243=EDGE_CURVE('',#311,#311,#363,.T.);
#244=EDGE_CURVE('',#312,#312,#364,.T.);
#245=EDGE_CURVE('',#313,#314,#365,.T.);
#246=EDGE_CURVE('',#313,#315,#26,.T.);
#247=EDGE_CURVE('',#315,#316,#27,.T.);
#248=EDGE_CURVE('',#317,#316,#28,.T.);
#249=EDGE_CURVE('',#317,#318,#366,.T.);
#250=EDGE_CURVE('',#319,#318,#29,.T.);
#251=EDGE_CURVE('',#320,#319,#30,.T.);
#252=EDGE_CURVE('',#320,#314,#31,.T.);
#253=EDGE_CURVE('',#321,#321,#367,.T.);
#254=EDGE_CURVE('',#322,#322,#368,.F.);
#255=EDGE_CURVE('',#323,#323,#369,.T.);
#256=EDGE_CURVE('',#324,#324,#370,.T.);
#257=EDGE_CURVE('',#325,#326,#371,.T.);
#258=EDGE_CURVE('',#327,#326,#32,.T.);
#259=EDGE_CURVE('',#327,#328,#33,.T.);
#260=EDGE_CURVE('',#328,#329,#34,.T.);
#261=EDGE_CURVE('',#330,#329,#372,.T.);
#262=EDGE_CURVE('',#330,#331,#35,.T.);
#263=EDGE_CURVE('',#332,#331,#36,.T.);
#264=EDGE_CURVE('',#325,#332,#37,.T.);
#265=EDGE_CURVE('',#333,#333,#373,.T.);
#266=EDGE_CURVE('',#334,#334,#374,.T.);
#267=EDGE_CURVE('',#335,#335,#375,.T.);
#268=EDGE_CURVE('',#336,#336,#376,.T.);
#269=EDGE_CURVE('',#337,#337,#377,.T.);
#270=EDGE_CURVE('',#338,#339,#378,.T.);
#271=EDGE_CURVE('',#340,#339,#38,.T.);
#272=EDGE_CURVE('',#340,#341,#39,.T.);
#273=EDGE_CURVE('',#341,#342,#40,.T.);
#274=EDGE_CURVE('',#343,#342,#379,.F.);
#275=EDGE_CURVE('',#343,#344,#41,.T.);
#276=EDGE_CURVE('',#345,#344,#42,.T.);
#277=EDGE_CURVE('',#338,#345,#43,.T.);
#278=EDGE_CURVE('',#346,#346,#380,.T.);
#279=EDGE_CURVE('',#347,#347,#381,.F.);
#280=EDGE_CURVE('',#348,#348,#382,.F.);
#281=EDGE_CURVE('',#349,#349,#383,.F.);
#282=EDGE_CURVE('',#350,#350,#384,.T.);
#283=EDGE_CURVE('',#351,#351,#385,.T.);
#284=EDGE_CURVE('',#352,#353,#386,.T.);
#285=EDGE_CURVE('',#352,#354,#44,.T.);
#286=EDGE_CURVE('',#354,#355,#45,.T.);
#287=EDGE_CURVE('',#356,#355,#46,.T.);
#288=EDGE_CURVE('',#356,#357,#387,.F.);
#289=EDGE_CURVE('',#358,#357,#47,.T.);
#290=EDGE_CURVE('',#359,#358,#48,.T.);
#291=EDGE_CURVE('',#359,#353,#49,.T.);
#292=EDGE_CURVE('',#360,#360,#388,.T.);
#293=EDGE_CURVE('',#361,#361,#389,.F.);
#294=EDGE_CURVE('',#356,#330,#50,.T.);
#295=EDGE_CURVE('',#357,#329,#51,.T.);
#296=EDGE_CURVE('',#340,#359,#52,.T.);
#297=EDGE_CURVE('',#314,#339,#53,.T.);
#298=EDGE_CURVE('',#320,#327,#54,.T.);
#299=EDGE_CURVE('',#353,#326,#55,.T.);
#300=EDGE_CURVE('',#341,#358,#56,.T.);
#301=EDGE_CURVE('',#319,#328,#57,.T.);
#302=EDGE_CURVE('',#318,#342,#58,.T.);
#303=EDGE_CURVE('',#344,#355,#59,.T.);
#304=EDGE_CURVE('',#317,#343,#60,.T.);
#305=EDGE_CURVE('',#316,#331,#61,.T.);
#306=EDGE_CURVE('',#352,#325,#62,.T.);
#307=EDGE_CURVE('',#315,#332,#63,.T.);
#308=EDGE_CURVE('',#313,#338,#64,.T.);
#309=EDGE_CURVE('',#345,#354,#65,.T.);
#310=VERTEX_POINT('',#760);
#311=VERTEX_POINT('',#762);
#312=VERTEX_POINT('',#764);
#313=VERTEX_POINT('',#766);
#314=VERTEX_POINT('',#767);
#315=VERTEX_POINT('',#769);
#316=VERTEX_POINT('',#771);
#317=VERTEX_POINT('',#773);
#318=VERTEX_POINT('',#775);
#319=VERTEX_POINT('',#777);
#320=VERTEX_POINT('',#779);
#321=VERTEX_POINT('',#782);
#322=VERTEX_POINT('',#784);
#323=VERTEX_POINT('',#787);
#324=VERTEX_POINT('',#789);
#325=VERTEX_POINT('',#791);
#326=VERTEX_POINT('',#792);
#327=VERTEX_POINT('',#794);
#328=VERTEX_POINT('',#796);
#329=VERTEX_POINT('',#798);
#330=VERTEX_POINT('',#800);
#331=VERTEX_POINT('',#802);
#332=VERTEX_POINT('',#804);
#333=VERTEX_POINT('',#807);
#334=VERTEX_POINT('',#809);
#335=VERTEX_POINT('',#811);
#336=VERTEX_POINT('',#814);
#337=VERTEX_POINT('',#816);
#338=VERTEX_POINT('',#818);
#339=VERTEX_POINT('',#819);
#340=VERTEX_POINT('',#821);
#341=VERTEX_POINT('',#823);
#342=VERTEX_POINT('',#825);
#343=VERTEX_POINT('',#827);
#344=VERTEX_POINT('',#829);
#345=VERTEX_POINT('',#831);
#346=VERTEX_POINT('',#834);
#347=VERTEX_POINT('',#836);
#348=VERTEX_POINT('',#838);
#349=VERTEX_POINT('',#841);
#350=VERTEX_POINT('',#843);
#351=VERTEX_POINT('',#845);
#352=VERTEX_POINT('',#847);
#353=VERTEX_POINT('',#848);
#354=VERTEX_POINT('',#850);
#355=VERTEX_POINT('',#852);
#356=VERTEX_POINT('',#854);
#357=VERTEX_POINT('',#856);
#358=VERTEX_POINT('',#858);
#359=VERTEX_POINT('',#860);
#360=VERTEX_POINT('',#863);
#361=VERTEX_POINT('',#865);
#362=CIRCLE('',#554,0.003);
#363=CIRCLE('',#555,0.003);
#364=CIRCLE('',#556,0.003);
#365=CIRCLE('',#557,0.0041);
#366=CIRCLE('',#558,0.0041);
#367=CIRCLE('',#559,0.0015);
#368=CIRCLE('',#560,0.003);
#369=CIRCLE('',#562,0.003);
#370=CIRCLE('',#563,0.003);
#371=CIRCLE('',#564,0.0041);
#372=CIRCLE('',#565,0.0041);
#373=CIRCLE('',#566,0.0015);
#374=CIRCLE('',#567,0.003);
#375=CIRCLE('',#568,0.003);
#376=CIRCLE('',#570,0.003);
#377=CIRCLE('',#571,0.003);
#378=CIRCLE('',#572,0.0041);
#379=CIRCLE('',#573,0.0041);
#380=CIRCLE('',#574,0.0035);
#381=CIRCLE('',#575,0.003);
#382=CIRCLE('',#576,0.003);
#383=CIRCLE('',#578,0.003);
#384=CIRCLE('',#579,0.003);
#385=CIRCLE('',#580,0.003);
#386=CIRCLE('',#581,0.0041);
#387=CIRCLE('',#582,0.0041);
#388=CIRCLE('',#583,0.0035);
#389=CIRCLE('',#584,0.003);
#390=EDGE_LOOP('',(#106));
#391=EDGE_LOOP('',(#107));
#392=EDGE_LOOP('',(#108));
#393=EDGE_LOOP('',(#109,#110,#111,#112,#113,#114,#115,#116));
#394=EDGE_LOOP('',(#117));
#395=EDGE_LOOP('',(#118));
#396=EDGE_LOOP('',(#119));
#397=EDGE_LOOP('',(#120));
#398=EDGE_LOOP('',(#121,#122,#123,#124,#125,#126,#127,#128));
#399=EDGE_LOOP('',(#129));
#400=EDGE_LOOP('',(#130));
#401=EDGE_LOOP('',(#131));
#402=EDGE_LOOP('',(#132));
#403=EDGE_LOOP('',(#133));
#404=EDGE_LOOP('',(#134,#135,#136,#137,#138,#139,#140,#141));
#405=EDGE_LOOP('',(#142));
#406=EDGE_LOOP('',(#143));
#407=EDGE_LOOP('',(#144));
#408=EDGE_LOOP('',(#145));
#409=EDGE_LOOP('',(#146));
#410=EDGE_LOOP('',(#147));
#411=EDGE_LOOP('',(#148,#149,#150,#151,#152,#153,#154,#155));
#412=EDGE_LOOP('',(#156));
#413=EDGE_LOOP('',(#157));
#414=EDGE_LOOP('',(#158,#159,#160,#161));
#415=EDGE_LOOP('',(#162,#163,#164,#165,#166,#167,#168,#169));
#416=EDGE_LOOP('',(#170,#171,#172,#173,#174,#175,#176,#177));
#417=EDGE_LOOP('',(#178,#179,#180,#181,#182,#183,#184,#185));
#418=EDGE_LOOP('',(#186,#187,#188,#189,#190,#191,#192,#193));
#419=EDGE_LOOP('',(#194,#195,#196,#197));
#420=EDGE_LOOP('',(#198,#199,#200,#201));
#421=EDGE_LOOP('',(#202,#203,#204,#205));
#422=EDGE_LOOP('',(#206,#207,#208,#209));
#423=EDGE_LOOP('',(#210,#211,#212,#213));
#424=EDGE_LOOP('',(#214));
#425=EDGE_LOOP('',(#215));
#426=EDGE_LOOP('',(#216,#217,#218,#219));
#427=EDGE_LOOP('',(#220,#221,#222,#223));
#428=EDGE_LOOP('',(#224));
#429=EDGE_LOOP('',(#225));
#430=EDGE_LOOP('',(#226));
#431=EDGE_LOOP('',(#227));
#432=EDGE_LOOP('',(#228));
#433=EDGE_LOOP('',(#229));
#434=EDGE_LOOP('',(#230));
#435=EDGE_LOOP('',(#231));
#436=EDGE_LOOP('',(#232));
#437=EDGE_LOOP('',(#233));
#438=EDGE_LOOP('',(#234));
#439=EDGE_LOOP('',(#235));
#440=EDGE_LOOP('',(#236));
#441=EDGE_LOOP('',(#237));
#442=EDGE_LOOP('',(#238));
#443=EDGE_LOOP('',(#239));
#444=EDGE_LOOP('',(#240));
#445=EDGE_LOOP('',(#241));
#446=FACE_BOUND('',#390,.T.);
#447=FACE_BOUND('',#391,.T.);
#448=FACE_BOUND('',#392,.T.);
#449=FACE_BOUND('',#393,.T.);
#450=FACE_BOUND('',#394,.T.);
#451=FACE_BOUND('',#395,.T.);
#452=FACE_BOUND('',#396,.T.);
#453=FACE_BOUND('',#397,.T.);
#454=FACE_BOUND('',#398,.T.);
#455=FACE_BOUND('',#399,.T.);
#456=FACE_BOUND('',#400,.T.);
#457=FACE_BOUND('',#401,.T.);
#458=FACE_BOUND('',#402,.T.);
#459=FACE_BOUND('',#403,.T.);
#460=FACE_BOUND('',#404,.T.);
#461=FACE_BOUND('',#405,.T.);
#462=FACE_BOUND('',#406,.T.);
#463=FACE_BOUND('',#407,.T.);
#464=FACE_BOUND('',#408,.T.);
#465=FACE_BOUND('',#409,.T.);
#466=FACE_BOUND('',#410,.T.);
#467=FACE_BOUND('',#411,.T.);
#468=FACE_BOUND('',#412,.T.);
#469=FACE_BOUND('',#413,.T.);
#470=FACE_BOUND('',#414,.T.);
#471=FACE_BOUND('',#415,.T.);
#472=FACE_BOUND('',#416,.T.);
#473=FACE_BOUND('',#417,.T.);
#474=FACE_BOUND('',#418,.T.);
#475=FACE_BOUND('',#419,.T.);
#476=FACE_BOUND('',#420,.T.);
#477=FACE_BOUND('',#421,.T.);
#478=FACE_BOUND('',#422,.T.);
#479=FACE_BOUND('',#423,.T.);
#480=FACE_BOUND('',#424,.T.);
#481=FACE_BOUND('',#425,.T.);
#482=FACE_BOUND('',#426,.T.);
#483=FACE_BOUND('',#427,.T.);
#484=FACE_BOUND('',#428,.T.);
#485=FACE_BOUND('',#429,.T.);
#486=FACE_BOUND('',#430,.T.);
#487=FACE_BOUND('',#431,.T.);
#488=FACE_BOUND('',#432,.T.);
#489=FACE_BOUND('',#433,.T.);
#490=FACE_BOUND('',#434,.T.);
#491=FACE_BOUND('',#435,.T.);
#492=FACE_BOUND('',#436,.T.);
#493=FACE_BOUND('',#437,.T.);
#494=FACE_BOUND('',#438,.T.);
#495=FACE_BOUND('',#439,.T.);
#496=FACE_BOUND('',#440,.T.);
#497=FACE_BOUND('',#441,.T.);
#498=FACE_BOUND('',#442,.T.);
#499=FACE_BOUND('',#443,.T.);
#500=FACE_BOUND('',#444,.T.);
#501=FACE_BOUND('',#445,.T.);
#502=PLANE('',#553);
#503=PLANE('',#561);
#504=PLANE('',#569);
#505=PLANE('',#577);
#506=PLANE('',#586);
#507=PLANE('',#587);
#508=PLANE('',#588);
#509=PLANE('',#589);
#510=PLANE('',#592);
#511=PLANE('',#594);
#512=PLANE('',#596);
#513=PLANE('',#597);
#514=ADVANCED_FACE('',(#446,#447,#448,#449,#450,#451),#502,.T.);
#515=ADVANCED_FACE('',(#452,#453,#454,#455,#456,#457),#503,.F.);
#516=ADVANCED_FACE('',(#458,#459,#460,#461,#462,#463),#504,.F.);
#517=ADVANCED_FACE('',(#464,#465,#466,#467,#468,#469),#505,.T.);
#518=ADVANCED_FACE('',(#470),#12,.F.);
#519=ADVANCED_FACE('',(#471),#506,.F.);
#520=ADVANCED_FACE('',(#472),#507,.T.);
#521=ADVANCED_FACE('',(#473),#508,.T.);
#522=ADVANCED_FACE('',(#474),#509,.F.);
#523=ADVANCED_FACE('',(#475),#13,.F.);
#524=ADVANCED_FACE('',(#476),#14,.F.);
#525=ADVANCED_FACE('',(#477),#510,.F.);
#526=ADVANCED_FACE('',(#478),#15,.F.);
#527=ADVANCED_FACE('',(#479),#511,.T.);
#528=ADVANCED_FACE('',(#480,#481),#16,.F.);
#529=ADVANCED_FACE('',(#482),#512,.T.);
#530=ADVANCED_FACE('',(#483),#513,.F.);
#531=ADVANCED_FACE('',(#484,#485),#17,.T.);
#532=ADVANCED_FACE('',(#486,#487),#18,.F.);
#533=ADVANCED_FACE('',(#488,#489),#19,.F.);
#534=ADVANCED_FACE('',(#490,#491),#20,.F.);
#535=ADVANCED_FACE('',(#492,#493),#21,.F.);
#536=ADVANCED_FACE('',(#494,#495),#22,.F.);
#537=ADVANCED_FACE('',(#496,#497),#23,.F.);
#538=ADVANCED_FACE('',(#498,#499),#24,.F.);
#539=ADVANCED_FACE('',(#500,#501),#25,.F.);
#540=CLOSED_SHELL('',(#514,#515,#516,#517,#518,#519,#520,#521,#522,#523,
#524,#525,#526,#527,#528,#529,#530,#531,#532,#533,#534,#535,#536,#537,#538,
#539));
#541=STYLED_ITEM('',(#542),#549);
#542=PRESENTATION_STYLE_ASSIGNMENT((#543));
#543=SURFACE_STYLE_USAGE(.BOTH.,#544);
#544=SURFACE_SIDE_STYLE('',(#545));
#545=SURFACE_STYLE_FILL_AREA(#546);
#546=FILL_AREA_STYLE('',(#547));
#547=FILL_AREA_STYLE_COLOUR('',#548);
#548=COLOUR_RGB('',0.615686274509804,0.811764705882353,0.929411764705882);
#549=MANIFOLD_SOLID_BREP('Side',#540);
#550=SHAPE_DEFINITION_REPRESENTATION(#910,#551);
#551=SHAPE_REPRESENTATION('Side',(#552),#905);
#552=AXIS2_PLACEMENT_3D('',#757,#607,#608);
#553=AXIS2_PLACEMENT_3D('',#758,#609,#610);
#554=AXIS2_PLACEMENT_3D('',#759,#611,#612);
#555=AXIS2_PLACEMENT_3D('',#761,#613,#614);
#556=AXIS2_PLACEMENT_3D('',#763,#615,#616);
#557=AXIS2_PLACEMENT_3D('',#765,#617,#618);
#558=AXIS2_PLACEMENT_3D('',#774,#622,#623);
#559=AXIS2_PLACEMENT_3D('',#781,#627,#628);
#560=AXIS2_PLACEMENT_3D('',#783,#629,#630);
#561=AXIS2_PLACEMENT_3D('',#785,#631,#632);
#562=AXIS2_PLACEMENT_3D('',#786,#633,#634);
#563=AXIS2_PLACEMENT_3D('',#788,#635,#636);
#564=AXIS2_PLACEMENT_3D('',#790,#637,#638);
#565=AXIS2_PLACEMENT_3D('',#799,#642,#643);
#566=AXIS2_PLACEMENT_3D('',#806,#647,#648);
#567=AXIS2_PLACEMENT_3D('',#808,#649,#650);
#568=AXIS2_PLACEMENT_3D('',#810,#651,#652);
#569=AXIS2_PLACEMENT_3D('',#812,#653,#654);
#570=AXIS2_PLACEMENT_3D('',#813,#655,#656);
#571=AXIS2_PLACEMENT_3D('',#815,#657,#658);
#572=AXIS2_PLACEMENT_3D('',#817,#659,#660);
#573=AXIS2_PLACEMENT_3D('',#826,#664,#665);
#574=AXIS2_PLACEMENT_3D('',#833,#669,#670);
#575=AXIS2_PLACEMENT_3D('',#835,#671,#672);
#576=AXIS2_PLACEMENT_3D('',#837,#673,#674);
#577=AXIS2_PLACEMENT_3D('',#839,#675,#676);
#578=AXIS2_PLACEMENT_3D('',#840,#677,#678);
#579=AXIS2_PLACEMENT_3D('',#842,#679,#680);
#580=AXIS2_PLACEMENT_3D('',#844,#681,#682);
#581=AXIS2_PLACEMENT_3D('',#846,#683,#684);
#582=AXIS2_PLACEMENT_3D('',#855,#688,#689);
#583=AXIS2_PLACEMENT_3D('',#862,#693,#694);
#584=AXIS2_PLACEMENT_3D('',#864,#695,#696);
#585=AXIS2_PLACEMENT_3D('',#866,#697,#698);
#586=AXIS2_PLACEMENT_3D('',#869,#701,#702);
#587=AXIS2_PLACEMENT_3D('',#874,#707,#708);
#588=AXIS2_PLACEMENT_3D('',#878,#712,#713);
#589=AXIS2_PLACEMENT_3D('',#882,#717,#718);
#590=AXIS2_PLACEMENT_3D('',#887,#723,#724);
#591=AXIS2_PLACEMENT_3D('',#888,#725,#726);
#592=AXIS2_PLACEMENT_3D('',#889,#727,#728);
#593=AXIS2_PLACEMENT_3D('',#890,#729,#730);
#594=AXIS2_PLACEMENT_3D('',#891,#731,#732);
#595=AXIS2_PLACEMENT_3D('',#892,#733,#734);
#596=AXIS2_PLACEMENT_3D('',#893,#735,#736);
#597=AXIS2_PLACEMENT_3D('',#894,#737,#738);
#598=AXIS2_PLACEMENT_3D('',#895,#739,#740);
#599=AXIS2_PLACEMENT_3D('',#896,#741,#742);
#600=AXIS2_PLACEMENT_3D('',#897,#743,#744);
#601=AXIS2_PLACEMENT_3D('',#898,#745,#746);
#602=AXIS2_PLACEMENT_3D('',#899,#747,#748);
#603=AXIS2_PLACEMENT_3D('',#900,#749,#750);
#604=AXIS2_PLACEMENT_3D('',#901,#751,#752);
#605=AXIS2_PLACEMENT_3D('',#902,#753,#754);
#606=AXIS2_PLACEMENT_3D('',#903,#755,#756);
#607=DIRECTION('',(0.,0.,1.));
#608=DIRECTION('',(1.,0.,0.));
#609=DIRECTION('',(0.,0.,1.));
#610=DIRECTION('',(1.,0.,0.));
#611=DIRECTION('',(0.,0.,1.));
#612=DIRECTION('',(1.,0.,0.));
#613=DIRECTION('',(0.,0.,1.));
#614=DIRECTION('',(1.,0.,0.));
#615=DIRECTION('',(0.,0.,1.));
#616=DIRECTION('',(1.,0.,0.));
#617=DIRECTION('',(0.,0.,1.));
#618=DIRECTION('',(1.,0.,0.));
#619=DIRECTION('',(0.5,0.866025403784439,0.));
#620=DIRECTION('',(-1.,-2.44513404232921E-16,0.));
#621=DIRECTION('',(-0.5,0.86602540378444,0.));
#622=DIRECTION('',(0.,0.,-1.));
#623=DIRECTION('',(1.,0.,0.));
#624=DIRECTION('',(-0.5,0.866025403784439,0.));
#625=DIRECTION('',(-1.,-1.25873726936575E-16,0.));
#626=DIRECTION('',(0.5,0.866025403784438,0.));
#627=DIRECTION('',(0.,0.,1.));
#628=DIRECTION('',(1.,0.,0.));
#629=DIRECTION('',(0.,0.,1.));
#630=DIRECTION('',(1.,0.,0.));
#631=DIRECTION('',(0.,0.,1.));
#632=DIRECTION('',(1.,0.,0.));
#633=DIRECTION('',(0.,0.,-1.));
#634=DIRECTION('',(1.,0.,0.));
#635=DIRECTION('',(0.,0.,-1.));
#636=DIRECTION('',(1.,0.,0.));
#637=DIRECTION('',(0.,0.,1.));
#638=DIRECTION('',(1.,0.,0.));
#639=DIRECTION('',(0.5,0.866025403784438,0.));
#640=DIRECTION('',(-1.,-1.25873726936575E-16,0.));
#641=DIRECTION('',(-0.5,0.866025403784439,0.));
#642=DIRECTION('',(0.,0.,-1.));
#643=DIRECTION('',(1.,0.,0.));
#644=DIRECTION('',(-0.5,0.86602540378444,0.));
#645=DIRECTION('',(-1.,-2.44513404232921E-16,0.));
#646=DIRECTION('',(0.5,0.866025403784439,0.));
#647=DIRECTION('',(0.,0.,1.));
#648=DIRECTION('',(1.,0.,0.));
#649=DIRECTION('',(0.,0.,1.));
#650=DIRECTION('',(1.,0.,0.));
#651=DIRECTION('',(0.,0.,1.));
#652=DIRECTION('',(1.,0.,0.));
#653=DIRECTION('',(0.,0.,1.));
#654=DIRECTION('',(1.,0.,0.));
#655=DIRECTION('',(0.,0.,1.));
#656=DIRECTION('',(1.,0.,0.));
#657=DIRECTION('',(0.,0.,1.));
#658=DIRECTION('',(1.,0.,0.));
#659=DIRECTION('',(0.,0.,1.));
#660=DIRECTION('',(1.,0.,0.));
#661=DIRECTION('',(0.5,0.866025403784438,0.));
#662=DIRECTION('',(-1.,-1.25873726936575E-16,0.));
#663=DIRECTION('',(-0.5,0.86602540378444,0.));
#664=DIRECTION('',(0.,0.,1.));
#665=DIRECTION('',(1.,0.,0.));
#666=DIRECTION('',(-0.5,0.86602540378444,0.));
#667=DIRECTION('',(-1.,-2.44513404232921E-16,0.));
#668=DIRECTION('',(0.5,0.866025403784439,0.));
#669=DIRECTION('',(0.,0.,1.));
#670=DIRECTION('',(1.,0.,0.));
#671=DIRECTION('',(0.,0.,1.));
#672=DIRECTION('',(1.,0.,0.));
#673=DIRECTION('',(0.,0.,1.));
#674=DIRECTION('',(1.,0.,0.));
#675=DIRECTION('',(0.,0.,1.));
#676=DIRECTION('',(1.,0.,0.));
#677=DIRECTION('',(0.,0.,1.));
#678=DIRECTION('',(1.,0.,0.));
#679=DIRECTION('',(0.,0.,1.));
#680=DIRECTION('',(1.,0.,0.));
#681=DIRECTION('',(0.,0.,1.));
#682=DIRECTION('',(1.,0.,0.));
#683=DIRECTION('',(0.,0.,1.));
#684=DIRECTION('',(1.,0.,0.));
#685=DIRECTION('',(0.5,0.866025403784439,0.));
#686=DIRECTION('',(-1.,-2.44513404232921E-16,0.));
#687=DIRECTION('',(-0.5,0.86602540378444,0.));
#688=DIRECTION('',(0.,0.,1.));
#689=DIRECTION('',(1.,0.,0.));
#690=DIRECTION('',(-0.5,0.86602540378444,0.));
#691=DIRECTION('',(-1.,-1.25873726936575E-16,0.));
#692=DIRECTION('',(0.5,0.866025403784438,0.));
#693=DIRECTION('',(0.,0.,1.));
#694=DIRECTION('',(1.,0.,0.));
#695=DIRECTION('',(0.,0.,1.));
#696=DIRECTION('',(1.,0.,0.));
#697=DIRECTION('',(0.,0.,-1.));
#698=DIRECTION('',(-1.,0.,0.));
#699=DIRECTION('',(0.,0.,-1.));
#700=DIRECTION('',(0.,0.,-1.));
#701=DIRECTION('',(-0.866025403784438,0.5,0.));
#702=DIRECTION('',(-0.5,-0.866025403784438,0.));
#703=DIRECTION('',(0.,0.,-1.));
#704=DIRECTION('',(0.,0.,-1.));
#705=DIRECTION('',(0.,0.,-1.));
#706=DIRECTION('',(0.,0.,-1.));
#707=DIRECTION('',(-0.86602540378444,-0.5,0.));
#708=DIRECTION('',(0.5,-0.86602540378444,0.));
#709=DIRECTION('',(0.,0.,-1.));
#710=DIRECTION('',(0.,0.,-1.));
#711=DIRECTION('',(0.,0.,-1.));
#712=DIRECTION('',(-0.86602540378444,-0.5,0.));
#713=DIRECTION('',(0.5,-0.86602540378444,0.));
#714=DIRECTION('',(0.,0.,-1.));
#715=DIRECTION('',(0.,0.,-1.));
#716=DIRECTION('',(0.,0.,-1.));
#717=DIRECTION('',(-0.866025403784439,0.5,0.));
#718=DIRECTION('',(-0.5,-0.866025403784439,0.));
#719=DIRECTION('',(0.,0.,-1.));
#720=DIRECTION('',(0.,0.,-1.));
#721=DIRECTION('',(0.,0.,-1.));
#722=DIRECTION('',(0.,0.,-1.));
#723=DIRECTION('',(0.,0.,-1.));
#724=DIRECTION('',(-1.,0.,0.));
#725=DIRECTION('',(0.,0.,-1.));
#726=DIRECTION('',(-1.,0.,0.));
#727=DIRECTION('',(2.44513404232921E-16,-1.,0.));
#728=DIRECTION('',(1.,2.44513404232921E-16,0.));
#729=DIRECTION('',(0.,0.,-1.));
#730=DIRECTION('',(-1.,0.,0.));
#731=DIRECTION('',(1.25873726936575E-16,-1.,0.));
#732=DIRECTION('',(1.,1.25873726936575E-16,0.));
#733=DIRECTION('',(0.,0.,-1.));
#734=DIRECTION('',(-1.,0.,0.));
#735=DIRECTION('',(2.44513404232921E-16,-1.,0.));
#736=DIRECTION('',(1.,2.44513404232921E-16,0.));
#737=DIRECTION('',(1.25873726936575E-16,-1.,0.));
#738=DIRECTION('',(1.,1.25873726936575E-16,0.));
#739=DIRECTION('',(0.,0.,-1.));
#740=DIRECTION('',(-1.,0.,0.));
#741=DIRECTION('',(0.,0.,-1.));
#742=DIRECTION('',(-1.,0.,0.));
#743=DIRECTION('',(0.,0.,-1.));
#744=DIRECTION('',(-1.,0.,0.));
#745=DIRECTION('',(0.,0.,-1.));
#746=DIRECTION('',(-1.,0.,0.));
#747=DIRECTION('',(0.,0.,-1.));
#748=DIRECTION('',(-1.,0.,0.));
#749=DIRECTION('',(0.,0.,-1.));
#750=DIRECTION('',(-1.,0.,0.));
#751=DIRECTION('',(0.,0.,-1.));
#752=DIRECTION('',(-1.,0.,0.));
#753=DIRECTION('',(0.,0.,-1.));
#754=DIRECTION('',(-1.,0.,0.));
#755=DIRECTION('',(0.,0.,-1.));
#756=DIRECTION('',(-1.,0.,0.));
#757=CARTESIAN_POINT('',(0.,0.,0.));
#758=CARTESIAN_POINT('',(-0.0258839745962155,0.0410096225264523,0.05));
#759=CARTESIAN_POINT('',(-0.438,-1.08692910390521E-16,0.05));
#760=CARTESIAN_POINT('',(-0.435,-1.08692910390521E-16,0.05));
#761=CARTESIAN_POINT('',(0.438,-1.41385078521265E-18,0.05));
#762=CARTESIAN_POINT('',(0.441,-1.41385078521265E-18,0.05));
#763=CARTESIAN_POINT('',(0.476,1.15172524493615E-16,0.05));
#764=CARTESIAN_POINT('',(0.479,1.15172524493615E-16,0.05));
#765=CARTESIAN_POINT('',(0.510566243270259,0.,0.05));
#766=CARTESIAN_POINT('',(0.512616243270259,0.00355070415551624,0.05));
#767=CARTESIAN_POINT('',(0.508516243270259,-0.00355070415551615,0.05));
#768=CARTESIAN_POINT('',(0.51880812163513,0.0142753520777582,0.05));
#769=CARTESIAN_POINT('',(0.525,0.025,0.05));
#770=CARTESIAN_POINT('',(0.2625,0.025,0.05));
#771=CARTESIAN_POINT('',(-0.525,0.025,0.05));
#772=CARTESIAN_POINT('',(-0.52442264973081,0.024,0.05));
#773=CARTESIAN_POINT('',(-0.512616243270259,0.00355070415551614,0.05));
#774=CARTESIAN_POINT('',(-0.510566243270259,2.16840434497101E-19,0.05));
#775=CARTESIAN_POINT('',(-0.508516243270259,-0.00355070415551625,0.05));
#776=CARTESIAN_POINT('',(-0.496709836809708,-0.024,0.05));
#777=CARTESIAN_POINT('',(-0.496132486540519,-0.025,0.05));
#778=CARTESIAN_POINT('',(-0.24806624327026,-0.025,0.05));
#779=CARTESIAN_POINT('',(0.496132486540519,-0.025,0.05));
#780=CARTESIAN_POINT('',(0.502324364905389,-0.014275352077758,0.05));
#781=CARTESIAN_POINT('',(3.14418630020797E-17,0.0097,0.05));
#782=CARTESIAN_POINT('',(0.00150000000000003,0.0097,0.05));
#783=CARTESIAN_POINT('',(-0.476,-1.41385078521264E-18,0.05));
#784=CARTESIAN_POINT('',(-0.473,-1.41385078521264E-18,0.05));
#785=CARTESIAN_POINT('',(-0.0258839745962155,0.0410096225264523,0.));
#786=CARTESIAN_POINT('',(0.438,-1.41385078521265E-18,0.));
#787=CARTESIAN_POINT('',(0.441,-1.41385078521265E-18,0.));
#788=CARTESIAN_POINT('',(0.476,1.15172524493615E-16,0.));
#789=CARTESIAN_POINT('',(0.479,1.15172524493615E-16,0.));
#790=CARTESIAN_POINT('',(0.510566243270259,0.,0.));
#791=CARTESIAN_POINT('',(0.512616243270259,0.00355070415551624,0.));
#792=CARTESIAN_POINT('',(0.508516243270259,-0.00355070415551615,0.));
#793=CARTESIAN_POINT('',(0.502324364905389,-0.014275352077758,0.));
#794=CARTESIAN_POINT('',(0.496132486540519,-0.025,0.));
#795=CARTESIAN_POINT('',(-0.24806624327026,-0.025,0.));
#796=CARTESIAN_POINT('',(-0.496132486540519,-0.025,0.));
#797=CARTESIAN_POINT('',(-0.496709836809708,-0.024,0.));
#798=CARTESIAN_POINT('',(-0.508516243270259,-0.00355070415551625,0.));
#799=CARTESIAN_POINT('',(-0.510566243270259,2.16840434497101E-19,0.));
#800=CARTESIAN_POINT('',(-0.512616243270259,0.00355070415551614,0.));
#801=CARTESIAN_POINT('',(-0.52442264973081,0.024,0.));
#802=CARTESIAN_POINT('',(-0.525,0.025,0.));
#803=CARTESIAN_POINT('',(0.2625,0.025,0.));
#804=CARTESIAN_POINT('',(0.525,0.025,0.));
#805=CARTESIAN_POINT('',(0.51880812163513,0.0142753520777582,0.));
#806=CARTESIAN_POINT('',(3.14418630020797E-17,0.0097,0.));
#807=CARTESIAN_POINT('',(0.00150000000000003,0.0097,0.));
#808=CARTESIAN_POINT('',(-0.438,-1.08692910390521E-16,0.));
#809=CARTESIAN_POINT('',(-0.435,-1.08692910390521E-16,0.));
#810=CARTESIAN_POINT('',(-0.476,-1.41385078521264E-18,0.));
#811=CARTESIAN_POINT('',(-0.473,-1.41385078521264E-18,0.));
#812=CARTESIAN_POINT('',(-0.0258839745962155,0.0410096225264523,0.048));
#813=CARTESIAN_POINT('',(0.438,-1.41385078521265E-18,0.048));
#814=CARTESIAN_POINT('',(0.441,-1.41385078521265E-18,0.048));
#815=CARTESIAN_POINT('',(0.476,1.15172524493615E-16,0.048));
#816=CARTESIAN_POINT('',(0.479,1.15172524493615E-16,0.048));
#817=CARTESIAN_POINT('',(0.510566243270259,0.,0.048));
#818=CARTESIAN_POINT('',(0.512616243270259,0.00355070415551624,0.048));
#819=CARTESIAN_POINT('',(0.508516243270259,-0.00355070415551615,0.048));
#820=CARTESIAN_POINT('',(0.502324364905389,-0.014275352077758,0.048));
#821=CARTESIAN_POINT('',(0.497287187078898,-0.023,0.048));
#822=CARTESIAN_POINT('',(-0.24806624327026,-0.023,0.048));
#823=CARTESIAN_POINT('',(-0.497287187078898,-0.023,0.048));
#824=CARTESIAN_POINT('',(-0.496709836809708,-0.024,0.048));
#825=CARTESIAN_POINT('',(-0.508516243270259,-0.00355070415551625,0.048));
#826=CARTESIAN_POINT('',(-0.510566243270259,2.16840434497101E-19,0.048));
#827=CARTESIAN_POINT('',(-0.512616243270259,0.00355070415551614,0.048));
#828=CARTESIAN_POINT('',(-0.52442264973081,0.024,0.048));
#829=CARTESIAN_POINT('',(-0.523845299461621,0.023,0.048));
#830=CARTESIAN_POINT('',(0.2625,0.023,0.048));
#831=CARTESIAN_POINT('',(0.523845299461621,0.023,0.048));
#832=CARTESIAN_POINT('',(0.51880812163513,0.0142753520777582,0.048));
#833=CARTESIAN_POINT('',(3.14418630020797E-17,0.0097,0.048));
#834=CARTESIAN_POINT('',(0.00350000000000003,0.0097,0.048));
#835=CARTESIAN_POINT('',(-0.438,-1.08692910390521E-16,0.048));
#836=CARTESIAN_POINT('',(-0.435,-1.08692910390521E-16,0.048));
#837=CARTESIAN_POINT('',(-0.476,-1.41385078521264E-18,0.048));
#838=CARTESIAN_POINT('',(-0.473,-1.41385078521264E-18,0.048));
#839=CARTESIAN_POINT('',(-0.0258839745962155,0.0410096225264523,0.002));
#840=CARTESIAN_POINT('',(-0.438,-1.08692910390521E-16,0.002));
#841=CARTESIAN_POINT('',(-0.435,-1.08692910390521E-16,0.002));
#842=CARTESIAN_POINT('',(0.438,-1.41385078521265E-18,0.002));
#843=CARTESIAN_POINT('',(0.441,-1.41385078521265E-18,0.002));
#844=CARTESIAN_POINT('',(0.476,1.15172524493615E-16,0.002));
#845=CARTESIAN_POINT('',(0.479,1.15172524493615E-16,0.002));
#846=CARTESIAN_POINT('',(0.510566243270259,0.,0.002));
#847=CARTESIAN_POINT('',(0.512616243270259,0.00355070415551624,0.002));
#848=CARTESIAN_POINT('',(0.508516243270259,-0.00355070415551615,0.002));
#849=CARTESIAN_POINT('',(0.51880812163513,0.0142753520777582,0.002));
#850=CARTESIAN_POINT('',(0.523845299461621,0.023,0.002));
#851=CARTESIAN_POINT('',(0.2625,0.023,0.002));
#852=CARTESIAN_POINT('',(-0.523845299461621,0.023,0.002));
#853=CARTESIAN_POINT('',(-0.52442264973081,0.024,0.002));
#854=CARTESIAN_POINT('',(-0.512616243270259,0.00355070415551614,0.002));
#855=CARTESIAN_POINT('',(-0.510566243270259,2.16840434497101E-19,0.002));
#856=CARTESIAN_POINT('',(-0.508516243270259,-0.00355070415551625,0.002));
#857=CARTESIAN_POINT('',(-0.496709836809708,-0.024,0.002));
#858=CARTESIAN_POINT('',(-0.497287187078898,-0.023,0.002));
#859=CARTESIAN_POINT('',(-0.24806624327026,-0.023,0.002));
#860=CARTESIAN_POINT('',(0.497287187078898,-0.023,0.002));
#861=CARTESIAN_POINT('',(0.502324364905389,-0.014275352077758,0.002));
#862=CARTESIAN_POINT('',(3.14418630020797E-17,0.0097,0.002));
#863=CARTESIAN_POINT('',(0.00350000000000003,0.0097,0.002));
#864=CARTESIAN_POINT('',(-0.476,-1.41385078521264E-18,0.002));
#865=CARTESIAN_POINT('',(-0.473,-1.41385078521264E-18,0.002));
#866=CARTESIAN_POINT('',(-0.510566243270259,2.16840434497101E-19,0.05));
#867=CARTESIAN_POINT('',(-0.512616243270259,0.00355070415551614,0.05));
#868=CARTESIAN_POINT('',(-0.508516243270259,-0.00355070415551625,0.05));
#869=CARTESIAN_POINT('',(0.502324364905389,-0.014275352077758,0.05));
#870=CARTESIAN_POINT('',(0.497287187078898,-0.023,0.05));
#871=CARTESIAN_POINT('',(0.508516243270259,-0.00355070415551615,0.05));
#872=CARTESIAN_POINT('',(0.496132486540519,-0.025,0.05));
#873=CARTESIAN_POINT('',(0.508516243270259,-0.00355070415551615,0.05));
#874=CARTESIAN_POINT('',(-0.496709836809708,-0.024,0.05));
#875=CARTESIAN_POINT('',(-0.497287187078898,-0.023,0.05));
#876=CARTESIAN_POINT('',(-0.496132486540519,-0.025,0.05));
#877=CARTESIAN_POINT('',(-0.508516243270259,-0.00355070415551625,0.05));
#878=CARTESIAN_POINT('',(-0.52442264973081,0.024,0.05));
#879=CARTESIAN_POINT('',(-0.523845299461621,0.023,0.05));
#880=CARTESIAN_POINT('',(-0.512616243270259,0.00355070415551614,0.05));
#881=CARTESIAN_POINT('',(-0.525,0.025,0.05));
#882=CARTESIAN_POINT('',(0.51880812163513,0.0142753520777582,0.05));
#883=CARTESIAN_POINT('',(0.512616243270259,0.00355070415551624,0.05));
#884=CARTESIAN_POINT('',(0.525,0.025,0.05));
#885=CARTESIAN_POINT('',(0.512616243270259,0.00355070415551624,0.05));
#886=CARTESIAN_POINT('',(0.523845299461621,0.023,0.05));
#887=CARTESIAN_POINT('',(0.510566243270259,0.,0.05));
#888=CARTESIAN_POINT('',(0.510566243270259,0.,0.05));
#889=CARTESIAN_POINT('',(0.2625,0.025,0.05));
#890=CARTESIAN_POINT('',(-0.510566243270259,2.16840434497101E-19,0.05));
#891=CARTESIAN_POINT('',(-0.24806624327026,-0.025,0.05));
#892=CARTESIAN_POINT('',(3.14418630020797E-17,0.0097,0.05));
#893=CARTESIAN_POINT('',(0.2625,0.023,0.05));
#894=CARTESIAN_POINT('',(-0.24806624327026,-0.023,0.05));
#895=CARTESIAN_POINT('',(3.14418630020797E-17,0.0097,0.05));
#896=CARTESIAN_POINT('',(0.476,1.15172524493615E-16,1.05238825899246));
#897=CARTESIAN_POINT('',(0.438,-1.41385078521265E-18,1.05238825899246));
#898=CARTESIAN_POINT('',(-0.438,-1.08692910390521E-16,1.05238825899246));
#899=CARTESIAN_POINT('',(-0.476,-1.41385078521264E-18,1.05238825899246));
#900=CARTESIAN_POINT('',(0.476,1.15172524493615E-16,1.05238825899246));
#901=CARTESIAN_POINT('',(0.438,-1.41385078521265E-18,1.05238825899246));
#902=CARTESIAN_POINT('',(-0.438,-1.08692910390521E-16,1.05238825899246));
#903=CARTESIAN_POINT('',(-0.476,-1.41385078521264E-18,1.05238825899246));
#904=MECHANICAL_DESIGN_GEOMETRIC_PRESENTATION_REPRESENTATION('',(#541),
#905);
#905=(
GEOMETRIC_REPRESENTATION_CONTEXT(3)
GLOBAL_UNCERTAINTY_ASSIGNED_CONTEXT((#906))
GLOBAL_UNIT_ASSIGNED_CONTEXT((#909,#908,#907))
REPRESENTATION_CONTEXT('Side','TOP_LEVEL_ASSEMBLY_PART')
);
#906=UNCERTAINTY_MEASURE_WITH_UNIT(LENGTH_MEASURE(1.E-8),#909,
'DISTANCE_ACCURACY_VALUE','Maximum Tolerance applied to model');
#907=(
NAMED_UNIT(*)
SI_UNIT($,.STERADIAN.)
SOLID_ANGLE_UNIT()
);
#908=(
NAMED_UNIT(*)
PLANE_ANGLE_UNIT()
SI_UNIT($,.RADIAN.)
);
#909=(
LENGTH_UNIT()
NAMED_UNIT(*)
SI_UNIT($,.METRE.)
);
#910=PRODUCT_DEFINITION_SHAPE('','',#911);
#911=PRODUCT_DEFINITION('','',#913,#912);
#912=PRODUCT_DEFINITION_CONTEXT('',#919,'design');
#913=PRODUCT_DEFINITION_FORMATION_WITH_SPECIFIED_SOURCE('','',#915,
 .NOT_KNOWN.);
#914=PRODUCT_RELATED_PRODUCT_CATEGORY('','',(#915));
#915=PRODUCT('Side','Side','Side',(#917));
#916=PRODUCT_CATEGORY('','');
#917=PRODUCT_CONTEXT('',#919,'mechanical');
#918=APPLICATION_PROTOCOL_DEFINITION('international standard',
'ap242_managed_model_based_3d_engineering',2011,#919);
#919=APPLICATION_CONTEXT('managed model based 3d engineering');
ENDSEC;
END-ISO-10303-21;
