ISO-10303-21;
HEADER;
/* Generated by software containing ST-Developer
 * from STEP Tools, Inc. (www.steptools.com) 
 */
/* OPTION: using custom renumber hook */

FILE_DESCRIPTION(
/* description */ ('STEP AP242',
'CAx-IF Rec.Pracs.---Representation and Presentation of Product Manufa
cturing Information (PMI)---4.0---2014-10-13',
'CAx-IF Rec.Pracs.---3D Tessellated Geometry---0.4---2014-09-14','2;1',
'CAx-IF Rec.Pracs.---User Defined Attributes---1.5---2016-08-15'),
/* implementation_level */ '2;1');

FILE_NAME(
/* name */ '690727b0d6790f146a17d220',
/* time_stamp */ '2025-11-02T09:43:13Z',
/* author */ (''),
/* organization */ (''),
/* preprocessor_version */ 'ST-DEVELOPER v20',
/* originating_system */ 'ONSHAPE BY PTC INC, 1.206',
/* authorisation */ '  ');

FILE_SCHEMA (('AP242_MANAGED_MODEL_BASED_3D_ENGINEERING_MIM_LF { 1 0 10303 442 1 1 4 }'));
ENDSEC;

DATA;
#10=SHAPE_REPRESENTATION_RELATIONSHIP('','',#337,#11);
#11=ADVANCED_BREP_SHAPE_REPRESENTATION('',(#335),#559);
#12=ELLIPSE('',#363,0.00141421356237309,0.001);
#13=ELLIPSE('',#364,0.00141421356237309,0.001);
#14=ELLIPSE('',#366,0.00141421356237309,0.001);
#15=ELLIPSE('',#368,0.00141421356237309,0.001);
#16=CYLINDRICAL_SURFACE('',#358,0.001);
#17=CYLINDRICAL_SURFACE('',#359,0.001);
#18=CYLINDRICAL_SURFACE('',#360,0.001);
#19=CYLINDRICAL_SURFACE('',#361,0.001);
#20=CYLINDRICAL_SURFACE('',#362,0.001);
#21=CYLINDRICAL_SURFACE('',#365,0.001);
#22=CYLINDRICAL_SURFACE('',#367,0.001);
#23=CYLINDRICAL_SURFACE('',#369,0.001);
#24=CIRCLE('',#345,0.001);
#25=CIRCLE('',#346,0.001);
#26=CIRCLE('',#347,0.001);
#27=CIRCLE('',#348,0.001);
#28=CIRCLE('',#350,0.001);
#29=CIRCLE('',#351,0.001);
#30=CIRCLE('',#352,0.001);
#31=CIRCLE('',#353,0.001);
#32=ORIENTED_EDGE('',*,*,#120,.F.);
#33=ORIENTED_EDGE('',*,*,#121,.T.);
#34=ORIENTED_EDGE('',*,*,#122,.T.);
#35=ORIENTED_EDGE('',*,*,#123,.F.);
#36=ORIENTED_EDGE('',*,*,#124,.F.);
#37=ORIENTED_EDGE('',*,*,#125,.T.);
#38=ORIENTED_EDGE('',*,*,#120,.T.);
#39=ORIENTED_EDGE('',*,*,#126,.F.);
#40=ORIENTED_EDGE('',*,*,#127,.F.);
#41=ORIENTED_EDGE('',*,*,#128,.T.);
#42=ORIENTED_EDGE('',*,*,#124,.T.);
#43=ORIENTED_EDGE('',*,*,#129,.T.);
#44=ORIENTED_EDGE('',*,*,#122,.F.);
#45=ORIENTED_EDGE('',*,*,#130,.T.);
#46=ORIENTED_EDGE('',*,*,#127,.T.);
#47=ORIENTED_EDGE('',*,*,#131,.T.);
#48=ORIENTED_EDGE('',*,*,#132,.T.);
#49=ORIENTED_EDGE('',*,*,#133,.T.);
#50=ORIENTED_EDGE('',*,*,#134,.T.);
#51=ORIENTED_EDGE('',*,*,#135,.T.);
#52=ORIENTED_EDGE('',*,*,#123,.T.);
#53=ORIENTED_EDGE('',*,*,#131,.F.);
#54=ORIENTED_EDGE('',*,*,#129,.F.);
#55=ORIENTED_EDGE('',*,*,#126,.T.);
#56=ORIENTED_EDGE('',*,*,#136,.F.);
#57=ORIENTED_EDGE('',*,*,#137,.T.);
#58=ORIENTED_EDGE('',*,*,#138,.T.);
#59=ORIENTED_EDGE('',*,*,#139,.T.);
#60=ORIENTED_EDGE('',*,*,#140,.T.);
#61=ORIENTED_EDGE('',*,*,#141,.T.);
#62=ORIENTED_EDGE('',*,*,#142,.F.);
#63=ORIENTED_EDGE('',*,*,#143,.T.);
#64=ORIENTED_EDGE('',*,*,#144,.T.);
#65=ORIENTED_EDGE('',*,*,#145,.T.);
#66=ORIENTED_EDGE('',*,*,#146,.T.);
#67=ORIENTED_EDGE('',*,*,#147,.T.);
#68=ORIENTED_EDGE('',*,*,#148,.T.);
#69=ORIENTED_EDGE('',*,*,#149,.T.);
#70=ORIENTED_EDGE('',*,*,#150,.T.);
#71=ORIENTED_EDGE('',*,*,#151,.T.);
#72=ORIENTED_EDGE('',*,*,#146,.F.);
#73=ORIENTED_EDGE('',*,*,#152,.T.);
#74=ORIENTED_EDGE('',*,*,#140,.F.);
#75=ORIENTED_EDGE('',*,*,#153,.T.);
#76=ORIENTED_EDGE('',*,*,#142,.T.);
#77=ORIENTED_EDGE('',*,*,#154,.T.);
#78=ORIENTED_EDGE('',*,*,#144,.F.);
#79=ORIENTED_EDGE('',*,*,#155,.T.);
#80=ORIENTED_EDGE('',*,*,#136,.T.);
#81=ORIENTED_EDGE('',*,*,#156,.T.);
#82=ORIENTED_EDGE('',*,*,#150,.F.);
#83=ORIENTED_EDGE('',*,*,#157,.T.);
#84=ORIENTED_EDGE('',*,*,#148,.F.);
#85=ORIENTED_EDGE('',*,*,#158,.T.);
#86=ORIENTED_EDGE('',*,*,#138,.F.);
#87=ORIENTED_EDGE('',*,*,#159,.T.);
#88=ORIENTED_EDGE('',*,*,#145,.F.);
#89=ORIENTED_EDGE('',*,*,#154,.F.);
#90=ORIENTED_EDGE('',*,*,#141,.F.);
#91=ORIENTED_EDGE('',*,*,#152,.F.);
#92=ORIENTED_EDGE('',*,*,#151,.F.);
#93=ORIENTED_EDGE('',*,*,#156,.F.);
#94=ORIENTED_EDGE('',*,*,#143,.F.);
#95=ORIENTED_EDGE('',*,*,#155,.F.);
#96=ORIENTED_EDGE('',*,*,#147,.F.);
#97=ORIENTED_EDGE('',*,*,#153,.F.);
#98=ORIENTED_EDGE('',*,*,#139,.F.);
#99=ORIENTED_EDGE('',*,*,#158,.F.);
#100=ORIENTED_EDGE('',*,*,#149,.F.);
#101=ORIENTED_EDGE('',*,*,#159,.F.);
#102=ORIENTED_EDGE('',*,*,#137,.F.);
#103=ORIENTED_EDGE('',*,*,#157,.F.);
#104=ORIENTED_EDGE('',*,*,#160,.F.);
#105=ORIENTED_EDGE('',*,*,#121,.F.);
#106=ORIENTED_EDGE('',*,*,#161,.F.);
#107=ORIENTED_EDGE('',*,*,#134,.F.);
#108=ORIENTED_EDGE('',*,*,#161,.T.);
#109=ORIENTED_EDGE('',*,*,#125,.F.);
#110=ORIENTED_EDGE('',*,*,#162,.F.);
#111=ORIENTED_EDGE('',*,*,#135,.F.);
#112=ORIENTED_EDGE('',*,*,#160,.T.);
#113=ORIENTED_EDGE('',*,*,#133,.F.);
#114=ORIENTED_EDGE('',*,*,#163,.F.);
#115=ORIENTED_EDGE('',*,*,#130,.F.);
#116=ORIENTED_EDGE('',*,*,#162,.T.);
#117=ORIENTED_EDGE('',*,*,#128,.F.);
#118=ORIENTED_EDGE('',*,*,#163,.T.);
#119=ORIENTED_EDGE('',*,*,#132,.F.);
#120=EDGE_CURVE('',#164,#165,#192,.T.);
#121=EDGE_CURVE('',#164,#166,#193,.T.);
#122=EDGE_CURVE('',#166,#167,#194,.T.);
#123=EDGE_CURVE('',#165,#167,#195,.T.);
#124=EDGE_CURVE('',#168,#169,#196,.T.);
#125=EDGE_CURVE('',#168,#164,#197,.T.);
#126=EDGE_CURVE('',#169,#165,#198,.T.);
#127=EDGE_CURVE('',#170,#171,#199,.T.);
#128=EDGE_CURVE('',#170,#168,#200,.F.);
#129=EDGE_CURVE('',#169,#171,#201,.T.);
#130=EDGE_CURVE('',#166,#170,#202,.F.);
#131=EDGE_CURVE('',#171,#167,#203,.T.);
#132=EDGE_CURVE('',#172,#173,#204,.T.);
#133=EDGE_CURVE('',#173,#174,#205,.T.);
#134=EDGE_CURVE('',#174,#175,#206,.F.);
#135=EDGE_CURVE('',#175,#172,#207,.F.);
#136=EDGE_CURVE('',#176,#177,#208,.T.);
#137=EDGE_CURVE('',#176,#178,#24,.T.);
#138=EDGE_CURVE('',#178,#179,#209,.T.);
#139=EDGE_CURVE('',#179,#180,#25,.T.);
#140=EDGE_CURVE('',#180,#181,#210,.T.);
#141=EDGE_CURVE('',#181,#182,#26,.T.);
#142=EDGE_CURVE('',#183,#182,#211,.T.);
#143=EDGE_CURVE('',#183,#177,#27,.T.);
#144=EDGE_CURVE('',#184,#185,#212,.T.);
#145=EDGE_CURVE('',#185,#186,#28,.F.);
#146=EDGE_CURVE('',#186,#187,#213,.T.);
#147=EDGE_CURVE('',#187,#188,#29,.F.);
#148=EDGE_CURVE('',#188,#189,#214,.T.);
#149=EDGE_CURVE('',#189,#190,#30,.F.);
#150=EDGE_CURVE('',#190,#191,#215,.T.);
#151=EDGE_CURVE('',#191,#184,#31,.F.);
#152=EDGE_CURVE('',#186,#181,#216,.T.);
#153=EDGE_CURVE('',#180,#187,#217,.F.);
#154=EDGE_CURVE('',#182,#185,#218,.F.);
#155=EDGE_CURVE('',#184,#183,#219,.T.);
#156=EDGE_CURVE('',#177,#191,#220,.F.);
#157=EDGE_CURVE('',#190,#176,#221,.T.);
#158=EDGE_CURVE('',#188,#179,#222,.T.);
#159=EDGE_CURVE('',#178,#189,#223,.F.);
#160=EDGE_CURVE('',#166,#174,#12,.T.);
#161=EDGE_CURVE('',#175,#164,#13,.F.);
#162=EDGE_CURVE('',#172,#168,#14,.F.);
#163=EDGE_CURVE('',#170,#173,#15,.T.);
#164=VERTEX_POINT('',#469);
#165=VERTEX_POINT('',#470);
#166=VERTEX_POINT('',#472);
#167=VERTEX_POINT('',#474);
#168=VERTEX_POINT('',#478);
#169=VERTEX_POINT('',#479);
#170=VERTEX_POINT('',#484);
#171=VERTEX_POINT('',#485);
#172=VERTEX_POINT('',#493);
#173=VERTEX_POINT('',#494);
#174=VERTEX_POINT('',#496);
#175=VERTEX_POINT('',#498);
#176=VERTEX_POINT('',#502);
#177=VERTEX_POINT('',#503);
#178=VERTEX_POINT('',#505);
#179=VERTEX_POINT('',#507);
#180=VERTEX_POINT('',#509);
#181=VERTEX_POINT('',#511);
#182=VERTEX_POINT('',#513);
#183=VERTEX_POINT('',#515);
#184=VERTEX_POINT('',#519);
#185=VERTEX_POINT('',#520);
#186=VERTEX_POINT('',#522);
#187=VERTEX_POINT('',#524);
#188=VERTEX_POINT('',#526);
#189=VERTEX_POINT('',#528);
#190=VERTEX_POINT('',#530);
#191=VERTEX_POINT('',#532);
#192=LINE('',#468,#224);
#193=LINE('',#471,#225);
#194=LINE('',#473,#226);
#195=LINE('',#475,#227);
#196=LINE('',#477,#228);
#197=LINE('',#480,#229);
#198=LINE('',#481,#230);
#199=LINE('',#483,#231);
#200=LINE('',#486,#232);
#201=LINE('',#487,#233);
#202=LINE('',#489,#234);
#203=LINE('',#490,#235);
#204=LINE('',#492,#236);
#205=LINE('',#495,#237);
#206=LINE('',#497,#238);
#207=LINE('',#499,#239);
#208=LINE('',#501,#240);
#209=LINE('',#506,#241);
#210=LINE('',#510,#242);
#211=LINE('',#514,#243);
#212=LINE('',#518,#244);
#213=LINE('',#523,#245);
#214=LINE('',#527,#246);
#215=LINE('',#531,#247);
#216=LINE('',#535,#248);
#217=LINE('',#536,#249);
#218=LINE('',#538,#250);
#219=LINE('',#539,#251);
#220=LINE('',#541,#252);
#221=LINE('',#542,#253);
#222=LINE('',#544,#254);
#223=LINE('',#545,#255);
#224=VECTOR('',#374,1.);
#225=VECTOR('',#375,1.);
#226=VECTOR('',#376,1.);
#227=VECTOR('',#377,1.);
#228=VECTOR('',#380,1.);
#229=VECTOR('',#381,1.);
#230=VECTOR('',#382,1.);
#231=VECTOR('',#385,1.);
#232=VECTOR('',#386,1.);
#233=VECTOR('',#387,1.);
#234=VECTOR('',#390,1.);
#235=VECTOR('',#391,1.);
#236=VECTOR('',#394,1.);
#237=VECTOR('',#395,1.);
#238=VECTOR('',#396,1.);
#239=VECTOR('',#397,1.);
#240=VECTOR('',#400,1.);
#241=VECTOR('',#403,1.);
#242=VECTOR('',#406,1.);
#243=VECTOR('',#409,1.);
#244=VECTOR('',#414,1.);
#245=VECTOR('',#417,1.);
#246=VECTOR('',#420,1.);
#247=VECTOR('',#423,1.);
#248=VECTOR('',#428,1.);
#249=VECTOR('',#429,1.);
#250=VECTOR('',#432,1.);
#251=VECTOR('',#433,1.);
#252=VECTOR('',#436,1.);
#253=VECTOR('',#437,1.);
#254=VECTOR('',#440,1.);
#255=VECTOR('',#441,1.);
#256=EDGE_LOOP('',(#32,#33,#34,#35));
#257=EDGE_LOOP('',(#36,#37,#38,#39));
#258=EDGE_LOOP('',(#40,#41,#42,#43));
#259=EDGE_LOOP('',(#44,#45,#46,#47));
#260=EDGE_LOOP('',(#48,#49,#50,#51));
#261=EDGE_LOOP('',(#52,#53,#54,#55));
#262=EDGE_LOOP('',(#56,#57,#58,#59,#60,#61,#62,#63));
#263=EDGE_LOOP('',(#64,#65,#66,#67,#68,#69,#70,#71));
#264=EDGE_LOOP('',(#72,#73,#74,#75));
#265=EDGE_LOOP('',(#76,#77,#78,#79));
#266=EDGE_LOOP('',(#80,#81,#82,#83));
#267=EDGE_LOOP('',(#84,#85,#86,#87));
#268=EDGE_LOOP('',(#88,#89,#90,#91));
#269=EDGE_LOOP('',(#92,#93,#94,#95));
#270=EDGE_LOOP('',(#96,#97,#98,#99));
#271=EDGE_LOOP('',(#100,#101,#102,#103));
#272=EDGE_LOOP('',(#104,#105,#106,#107));
#273=EDGE_LOOP('',(#108,#109,#110,#111));
#274=EDGE_LOOP('',(#112,#113,#114,#115));
#275=EDGE_LOOP('',(#116,#117,#118,#119));
#276=FACE_BOUND('',#256,.T.);
#277=FACE_BOUND('',#257,.T.);
#278=FACE_BOUND('',#258,.T.);
#279=FACE_BOUND('',#259,.T.);
#280=FACE_BOUND('',#260,.T.);
#281=FACE_BOUND('',#261,.T.);
#282=FACE_BOUND('',#262,.T.);
#283=FACE_BOUND('',#263,.T.);
#284=FACE_BOUND('',#264,.T.);
#285=FACE_BOUND('',#265,.T.);
#286=FACE_BOUND('',#266,.T.);
#287=FACE_BOUND('',#267,.T.);
#288=FACE_BOUND('',#268,.T.);
#289=FACE_BOUND('',#269,.T.);
#290=FACE_BOUND('',#270,.T.);
#291=FACE_BOUND('',#271,.T.);
#292=FACE_BOUND('',#272,.T.);
#293=FACE_BOUND('',#273,.T.);
#294=FACE_BOUND('',#274,.T.);
#295=FACE_BOUND('',#275,.T.);
#296=PLANE('',#339);
#297=PLANE('',#340);
#298=PLANE('',#341);
#299=PLANE('',#342);
#300=PLANE('',#343);
#301=PLANE('',#344);
#302=PLANE('',#349);
#303=PLANE('',#354);
#304=PLANE('',#355);
#305=PLANE('',#356);
#306=PLANE('',#357);
#307=ADVANCED_FACE('',(#276),#296,.T.);
#308=ADVANCED_FACE('',(#277),#297,.T.);
#309=ADVANCED_FACE('',(#278),#298,.F.);
#310=ADVANCED_FACE('',(#279),#299,.F.);
#311=ADVANCED_FACE('',(#280),#300,.T.);
#312=ADVANCED_FACE('',(#281,#282),#301,.F.);
#313=ADVANCED_FACE('',(#283),#302,.F.);
#314=ADVANCED_FACE('',(#284),#303,.F.);
#315=ADVANCED_FACE('',(#285),#304,.F.);
#316=ADVANCED_FACE('',(#286),#305,.F.);
#317=ADVANCED_FACE('',(#287),#306,.F.);
#318=ADVANCED_FACE('',(#288),#16,.T.);
#319=ADVANCED_FACE('',(#289),#17,.T.);
#320=ADVANCED_FACE('',(#290),#18,.T.);
#321=ADVANCED_FACE('',(#291),#19,.T.);
#322=ADVANCED_FACE('',(#292),#20,.T.);
#323=ADVANCED_FACE('',(#293),#21,.T.);
#324=ADVANCED_FACE('',(#294),#22,.T.);
#325=ADVANCED_FACE('',(#295),#23,.T.);
#326=CLOSED_SHELL('',(#307,#308,#309,#310,#311,#312,#313,#314,#315,#316,
#317,#318,#319,#320,#321,#322,#323,#324,#325));
#327=STYLED_ITEM('',(#328),#335);
#328=PRESENTATION_STYLE_ASSIGNMENT((#329));
#329=SURFACE_STYLE_USAGE(.BOTH.,#330);
#330=SURFACE_SIDE_STYLE('',(#331));
#331=SURFACE_STYLE_FILL_AREA(#332);
#332=FILL_AREA_STYLE('',(#333));
#333=FILL_AREA_STYLE_COLOUR('',#334);
#334=COLOUR_RGB('',0.647058823529412,0.647058823529412,0.647058823529412);
#335=MANIFOLD_SOLID_BREP('30x30-cap',#326);
#336=SHAPE_DEFINITION_REPRESENTATION(#564,#337);
#337=SHAPE_REPRESENTATION('30x30-cap',(#338),#559);
#338=AXIS2_PLACEMENT_3D('',#466,#370,#371);
#339=AXIS2_PLACEMENT_3D('',#467,#372,#373);
#340=AXIS2_PLACEMENT_3D('',#476,#378,#379);
#341=AXIS2_PLACEMENT_3D('',#482,#383,#384);
#342=AXIS2_PLACEMENT_3D('',#488,#388,#389);
#343=AXIS2_PLACEMENT_3D('',#491,#392,#393);
#344=AXIS2_PLACEMENT_3D('',#500,#398,#399);
#345=AXIS2_PLACEMENT_3D('',#504,#401,#402);
#346=AXIS2_PLACEMENT_3D('',#508,#404,#405);
#347=AXIS2_PLACEMENT_3D('',#512,#407,#408);
#348=AXIS2_PLACEMENT_3D('',#516,#410,#411);
#349=AXIS2_PLACEMENT_3D('',#517,#412,#413);
#350=AXIS2_PLACEMENT_3D('',#521,#415,#416);
#351=AXIS2_PLACEMENT_3D('',#525,#418,#419);
#352=AXIS2_PLACEMENT_3D('',#529,#421,#422);
#353=AXIS2_PLACEMENT_3D('',#533,#424,#425);
#354=AXIS2_PLACEMENT_3D('',#534,#426,#427);
#355=AXIS2_PLACEMENT_3D('',#537,#430,#431);
#356=AXIS2_PLACEMENT_3D('',#540,#434,#435);
#357=AXIS2_PLACEMENT_3D('',#543,#438,#439);
#358=AXIS2_PLACEMENT_3D('',#546,#442,#443);
#359=AXIS2_PLACEMENT_3D('',#547,#444,#445);
#360=AXIS2_PLACEMENT_3D('',#548,#446,#447);
#361=AXIS2_PLACEMENT_3D('',#549,#448,#449);
#362=AXIS2_PLACEMENT_3D('',#550,#450,#451);
#363=AXIS2_PLACEMENT_3D('',#551,#452,#453);
#364=AXIS2_PLACEMENT_3D('',#552,#454,#455);
#365=AXIS2_PLACEMENT_3D('',#553,#456,#457);
#366=AXIS2_PLACEMENT_3D('',#554,#458,#459);
#367=AXIS2_PLACEMENT_3D('',#555,#460,#461);
#368=AXIS2_PLACEMENT_3D('',#556,#462,#463);
#369=AXIS2_PLACEMENT_3D('',#557,#464,#465);
#370=DIRECTION('',(0.,0.,1.));
#371=DIRECTION('',(1.,0.,0.));
#372=DIRECTION('',(5.83890676279069E-17,-1.,0.));
#373=DIRECTION('',(1.,5.83890676279069E-17,0.));
#374=DIRECTION('',(1.,5.83890676279069E-17,0.));
#375=DIRECTION('',(0.,0.,-1.));
#376=DIRECTION('',(1.,5.83890676279069E-17,0.));
#377=DIRECTION('',(0.,0.,-1.));
#378=DIRECTION('',(0.,0.,1.));
#379=DIRECTION('',(1.,0.,0.));
#380=DIRECTION('',(1.,5.83890676279069E-17,0.));
#381=DIRECTION('',(5.83890676279069E-17,-1.,0.));
#382=DIRECTION('',(5.83890676279069E-17,-1.,0.));
#383=DIRECTION('',(5.83890676279069E-17,-1.,0.));
#384=DIRECTION('',(1.,5.83890676279069E-17,0.));
#385=DIRECTION('',(1.,5.83890676279069E-17,0.));
#386=DIRECTION('',(0.,0.,-1.));
#387=DIRECTION('',(0.,0.,-1.));
#388=DIRECTION('',(0.,0.,1.));
#389=DIRECTION('',(1.,0.,0.));
#390=DIRECTION('',(5.83890676279069E-17,-1.,0.));
#391=DIRECTION('',(5.83890676279069E-17,-1.,0.));
#392=DIRECTION('',(-1.,-5.83890676279069E-17,0.));
#393=DIRECTION('',(5.83890676279069E-17,-1.,0.));
#394=DIRECTION('',(0.,0.,-1.));
#395=DIRECTION('',(5.83890676279069E-17,-1.,0.));
#396=DIRECTION('',(0.,0.,-1.));
#397=DIRECTION('',(5.83890676279069E-17,-1.,0.));
#398=DIRECTION('',(-1.,-5.83890676279069E-17,0.));
#399=DIRECTION('',(5.83890676279069E-17,-1.,0.));
#400=DIRECTION('',(5.83890676279069E-17,-1.,0.));
#401=DIRECTION('',(-1.,-5.83890676279069E-17,0.));
#402=DIRECTION('',(5.83890676279069E-17,-1.,0.));
#403=DIRECTION('',(0.,0.,-1.));
#404=DIRECTION('',(-1.,-5.83890676279069E-17,0.));
#405=DIRECTION('',(5.83890676279069E-17,-1.,0.));
#406=DIRECTION('',(5.83890676279069E-17,-1.,0.));
#407=DIRECTION('',(-1.,-5.83890676279069E-17,0.));
#408=DIRECTION('',(5.83890676279069E-17,-1.,0.));
#409=DIRECTION('',(0.,0.,-1.));
#410=DIRECTION('',(-1.,-5.83890676279069E-17,0.));
#411=DIRECTION('',(5.83890676279069E-17,-1.,0.));
#412=DIRECTION('',(-1.,0.,0.));
#413=DIRECTION('',(0.,0.,1.));
#414=DIRECTION('',(0.,0.,-1.));
#415=DIRECTION('',(-1.,0.,0.));
#416=DIRECTION('',(0.,0.,1.));
#417=DIRECTION('',(0.,1.,0.));
#418=DIRECTION('',(-1.,0.,0.));
#419=DIRECTION('',(0.,0.,1.));
#420=DIRECTION('',(0.,0.,1.));
#421=DIRECTION('',(-1.,0.,0.));
#422=DIRECTION('',(0.,0.,1.));
#423=DIRECTION('',(0.,-1.,0.));
#424=DIRECTION('',(-1.,0.,0.));
#425=DIRECTION('',(0.,0.,1.));
#426=DIRECTION('',(0.,0.,1.));
#427=DIRECTION('',(1.,0.,0.));
#428=DIRECTION('',(-1.,0.,0.));
#429=DIRECTION('',(-1.,0.,0.));
#430=DIRECTION('',(0.,1.,0.));
#431=DIRECTION('',(0.,0.,1.));
#432=DIRECTION('',(-1.,0.,0.));
#433=DIRECTION('',(-1.,0.,0.));
#434=DIRECTION('',(0.,0.,-1.));
#435=DIRECTION('',(-1.,0.,0.));
#436=DIRECTION('',(-1.,0.,0.));
#437=DIRECTION('',(-1.,0.,0.));
#438=DIRECTION('',(0.,-1.,0.));
#439=DIRECTION('',(0.,0.,-1.));
#440=DIRECTION('',(-1.,0.,0.));
#441=DIRECTION('',(-1.,0.,0.));
#442=DIRECTION('',(-1.,0.,0.));
#443=DIRECTION('',(0.,0.,1.));
#444=DIRECTION('',(-1.,0.,0.));
#445=DIRECTION('',(0.,0.,1.));
#446=DIRECTION('',(-1.,0.,0.));
#447=DIRECTION('',(0.,0.,1.));
#448=DIRECTION('',(-1.,0.,0.));
#449=DIRECTION('',(0.,0.,1.));
#450=DIRECTION('',(0.,0.,-1.));
#451=DIRECTION('',(-1.,0.,0.));
#452=DIRECTION('',(-4.12873056668529E-17,0.707106781186548,-0.707106781186548));
#453=DIRECTION('',(-4.12873056668529E-17,0.707106781186548,0.707106781186548));
#454=DIRECTION('',(4.12873056668529E-17,-0.707106781186548,-0.707106781186548));
#455=DIRECTION('',(4.12873056668529E-17,-0.707106781186548,0.707106781186548));
#456=DIRECTION('',(5.83890676279069E-17,-1.,0.));
#457=DIRECTION('',(1.,5.83890676279069E-17,0.));
#458=DIRECTION('',(4.12873056668529E-17,-0.707106781186548,0.707106781186548));
#459=DIRECTION('',(4.12873056668529E-17,-0.707106781186548,-0.707106781186548));
#460=DIRECTION('',(-5.83890676279069E-17,1.,0.));
#461=DIRECTION('',(-1.,-5.83890676279069E-17,0.));
#462=DIRECTION('',(-4.12873056668529E-17,0.707106781186548,0.707106781186548));
#463=DIRECTION('',(-4.12873056668529E-17,0.707106781186548,-0.707106781186548));
#464=DIRECTION('',(0.,0.,1.));
#465=DIRECTION('',(1.,0.,0.));
#466=CARTESIAN_POINT('',(0.,0.,0.));
#467=CARTESIAN_POINT('',(-0.222,0.045085,3.29597460435593E-17));
#468=CARTESIAN_POINT('',(-0.222,0.045085,0.015));
#469=CARTESIAN_POINT('',(-0.221,0.045085,0.015));
#470=CARTESIAN_POINT('',(-0.22,0.045085,0.015));
#471=CARTESIAN_POINT('',(-0.221,0.045085,3.29597460435593E-17));
#472=CARTESIAN_POINT('',(-0.221,0.045085,-0.015));
#473=CARTESIAN_POINT('',(-0.222,0.045085,-0.015));
#474=CARTESIAN_POINT('',(-0.22,0.045085,-0.015));
#475=CARTESIAN_POINT('',(-0.22,0.045085,3.29597460435593E-17));
#476=CARTESIAN_POINT('',(-0.222,0.075085,0.015));
#477=CARTESIAN_POINT('',(-0.222,0.075085,0.015));
#478=CARTESIAN_POINT('',(-0.221,0.075085,0.015));
#479=CARTESIAN_POINT('',(-0.22,0.075085,0.015));
#480=CARTESIAN_POINT('',(-0.221,0.075085,0.015));
#481=CARTESIAN_POINT('',(-0.22,0.075085,0.015));
#482=CARTESIAN_POINT('',(-0.222,0.075085,3.29597460435593E-17));
#483=CARTESIAN_POINT('',(-0.222,0.075085,-0.015));
#484=CARTESIAN_POINT('',(-0.221,0.075085,-0.015));
#485=CARTESIAN_POINT('',(-0.22,0.075085,-0.015));
#486=CARTESIAN_POINT('',(-0.221,0.075085,0.015));
#487=CARTESIAN_POINT('',(-0.22,0.075085,3.29597460435593E-17));
#488=CARTESIAN_POINT('',(-0.222,0.075085,-0.015));
#489=CARTESIAN_POINT('',(-0.221,0.075085,-0.015));
#490=CARTESIAN_POINT('',(-0.22,0.075085,-0.015));
#491=CARTESIAN_POINT('',(-0.222,0.075085,3.29597460435593E-17));
#492=CARTESIAN_POINT('',(-0.222,0.074085,-0.015));
#493=CARTESIAN_POINT('',(-0.222,0.074085,0.014));
#494=CARTESIAN_POINT('',(-0.222,0.074085,-0.014));
#495=CARTESIAN_POINT('',(-0.222,0.045085,-0.014));
#496=CARTESIAN_POINT('',(-0.222,0.046085,-0.014));
#497=CARTESIAN_POINT('',(-0.222,0.046085,3.29597460435593E-17));
#498=CARTESIAN_POINT('',(-0.222,0.046085,0.014));
#499=CARTESIAN_POINT('',(-0.222,0.075085,0.014));
#500=CARTESIAN_POINT('',(-0.22,0.075085,3.29597460435593E-17));
#501=CARTESIAN_POINT('',(-0.22,0.075085,0.012975));
#502=CARTESIAN_POINT('',(-0.22,0.07206,0.012975));
#503=CARTESIAN_POINT('',(-0.22,0.04811,0.012975));
#504=CARTESIAN_POINT('',(-0.22,0.07206,0.011975));
#505=CARTESIAN_POINT('',(-0.22,0.07306,0.011975));
#506=CARTESIAN_POINT('',(-0.22,0.07306,3.29597460435593E-17));
#507=CARTESIAN_POINT('',(-0.22,0.07306,-0.011975));
#508=CARTESIAN_POINT('',(-0.22,0.07206,-0.011975));
#509=CARTESIAN_POINT('',(-0.22,0.07206,-0.012975));
#510=CARTESIAN_POINT('',(-0.22,0.075085,-0.012975));
#511=CARTESIAN_POINT('',(-0.22,0.04811,-0.012975));
#512=CARTESIAN_POINT('',(-0.22,0.04811,-0.011975));
#513=CARTESIAN_POINT('',(-0.22,0.04711,-0.011975));
#514=CARTESIAN_POINT('',(-0.22,0.04711,3.29597460435593E-17));
#515=CARTESIAN_POINT('',(-0.22,0.04711,0.011975));
#516=CARTESIAN_POINT('',(-0.22,0.04811,0.011975));
#517=CARTESIAN_POINT('',(-0.217,0.066585,-0.0065));
#518=CARTESIAN_POINT('',(-0.217,0.04711,-0.0065));
#519=CARTESIAN_POINT('',(-0.217,0.04711,0.011975));
#520=CARTESIAN_POINT('',(-0.217,0.04711,-0.011975));
#521=CARTESIAN_POINT('',(-0.217,0.04811,-0.011975));
#522=CARTESIAN_POINT('',(-0.217,0.04811,-0.012975));
#523=CARTESIAN_POINT('',(-0.217,0.066585,-0.012975));
#524=CARTESIAN_POINT('',(-0.217,0.07206,-0.012975));
#525=CARTESIAN_POINT('',(-0.217,0.07206,-0.011975));
#526=CARTESIAN_POINT('',(-0.217,0.07306,-0.011975));
#527=CARTESIAN_POINT('',(-0.217,0.07306,-0.0065));
#528=CARTESIAN_POINT('',(-0.217,0.07306,0.011975));
#529=CARTESIAN_POINT('',(-0.217,0.07206,0.011975));
#530=CARTESIAN_POINT('',(-0.217,0.07206,0.012975));
#531=CARTESIAN_POINT('',(-0.217,0.066585,0.012975));
#532=CARTESIAN_POINT('',(-0.217,0.04811,0.012975));
#533=CARTESIAN_POINT('',(-0.217,0.04811,0.011975));
#534=CARTESIAN_POINT('',(-0.217,0.075085,-0.012975));
#535=CARTESIAN_POINT('',(-0.217,0.04811,-0.012975));
#536=CARTESIAN_POINT('',(-0.217,0.07206,-0.012975));
#537=CARTESIAN_POINT('',(-0.217,0.04711,3.29597460435593E-17));
#538=CARTESIAN_POINT('',(-0.217,0.04711,-0.011975));
#539=CARTESIAN_POINT('',(-0.217,0.04711,0.011975));
#540=CARTESIAN_POINT('',(-0.217,0.075085,0.012975));
#541=CARTESIAN_POINT('',(-0.217,0.04811,0.012975));
#542=CARTESIAN_POINT('',(-0.217,0.07206,0.012975));
#543=CARTESIAN_POINT('',(-0.217,0.07306,3.29597460435593E-17));
#544=CARTESIAN_POINT('',(-0.217,0.07306,-0.011975));
#545=CARTESIAN_POINT('',(-0.217,0.07306,0.011975));
#546=CARTESIAN_POINT('',(-0.217,0.04811,-0.011975));
#547=CARTESIAN_POINT('',(-0.217,0.04811,0.011975));
#548=CARTESIAN_POINT('',(-0.217,0.07206,-0.011975));
#549=CARTESIAN_POINT('',(-0.217,0.07206,0.011975));
#550=CARTESIAN_POINT('',(-0.221,0.046085,3.29597460435593E-17));
#551=CARTESIAN_POINT('',(-0.221,0.046085,-0.014));
#552=CARTESIAN_POINT('',(-0.221,0.046085,0.014));
#553=CARTESIAN_POINT('',(-0.221,0.075085,0.014));
#554=CARTESIAN_POINT('',(-0.221,0.074085,0.014));
#555=CARTESIAN_POINT('',(-0.221,0.075085,-0.014));
#556=CARTESIAN_POINT('',(-0.221,0.074085,-0.014));
#557=CARTESIAN_POINT('',(-0.221,0.074085,3.29597460435593E-17));
#558=MECHANICAL_DESIGN_GEOMETRIC_PRESENTATION_REPRESENTATION('',(#327),
#559);
#559=(
GEOMETRIC_REPRESENTATION_CONTEXT(3)
GLOBAL_UNCERTAINTY_ASSIGNED_CONTEXT((#560))
GLOBAL_UNIT_ASSIGNED_CONTEXT((#563,#562,#561))
REPRESENTATION_CONTEXT('30x30-cap','TOP_LEVEL_ASSEMBLY_PART')
);
#560=UNCERTAINTY_MEASURE_WITH_UNIT(LENGTH_MEASURE(1.E-8),#563,
'DISTANCE_ACCURACY_VALUE','Maximum Tolerance applied to model');
#561=(
NAMED_UNIT(*)
SI_UNIT($,.STERADIAN.)
SOLID_ANGLE_UNIT()
);
#562=(
NAMED_UNIT(*)
PLANE_ANGLE_UNIT()
SI_UNIT($,.RADIAN.)
);
#563=(
LENGTH_UNIT()
NAMED_UNIT(*)
SI_UNIT($,.METRE.)
);
#564=PRODUCT_DEFINITION_SHAPE('','',#565);
#565=PRODUCT_DEFINITION('','',#567,#566);
#566=PRODUCT_DEFINITION_CONTEXT('',#573,'design');
#567=PRODUCT_DEFINITION_FORMATION_WITH_SPECIFIED_SOURCE('','',#569,
 .NOT_KNOWN.);
#568=PRODUCT_RELATED_PRODUCT_CATEGORY('','',(#569));
#569=PRODUCT('30x30-cap','30x30-cap','30x30-cap',(#571));
#570=PRODUCT_CATEGORY('','');
#571=PRODUCT_CONTEXT('',#573,'mechanical');
#572=APPLICATION_PROTOCOL_DEFINITION('international standard',
'ap242_managed_model_based_3d_engineering',2011,#573);
#573=APPLICATION_CONTEXT('managed model based 3d engineering');
ENDSEC;
END-ISO-10303-21;
