ISO-10303-21;
HEADER;
/* Generated by software containing ST-Developer
 * from STEP Tools, Inc. (www.steptools.com) 
 */
/* OPTION: using custom renumber hook */

FILE_DESCRIPTION(
/* description */ ('STEP AP242',
'CAx-IF Rec.Pracs.---Representation and Presentation of Product Manufa
cturing Information (PMI)---4.0---2014-10-13',
'CAx-IF Rec.Pracs.---3D Tessellated Geometry---0.4---2014-09-14','2;1',
'CAx-IF Rec.Pracs.---User Defined Attributes---1.5---2016-08-15'),
/* implementation_level */ '2;1');

FILE_NAME(
/* name */ '690724c5d6790f146a17c7c0',
/* time_stamp */ '2025-11-02T09:30:46Z',
/* author */ (''),
/* organization */ (''),
/* preprocessor_version */ 'ST-DEVELOPER v20',
/* originating_system */ 'ONSHAPE BY PTC INC, 1.206',
/* authorisation */ '  ');

FILE_SCHEMA (('AP242_MANAGED_MODEL_BASED_3D_ENGINEERING_MIM_LF { 1 0 10303 442 1 1 4 }'));
ENDSEC;

DATA;
#10=SHAPE_REPRESENTATION_RELATIONSHIP('','',#443,#11);
#11=ADVANCED_BREP_SHAPE_REPRESENTATION('',(#441),#721);
#12=CYLINDRICAL_SURFACE('',#479,0.0015);
#13=CYLINDRICAL_SURFACE('',#480,0.0015);
#14=CYLINDRICAL_SURFACE('',#481,0.0015);
#15=CYLINDRICAL_SURFACE('',#482,0.0015);
#16=CYLINDRICAL_SURFACE('',#483,0.0015);
#17=CYLINDRICAL_SURFACE('',#484,0.0015);
#18=CYLINDRICAL_SURFACE('',#485,0.0015);
#19=CYLINDRICAL_SURFACE('',#486,0.0015);
#20=CYLINDRICAL_SURFACE('',#487,0.0025);
#21=CYLINDRICAL_SURFACE('',#488,0.0025);
#22=CYLINDRICAL_SURFACE('',#489,0.0025);
#23=CYLINDRICAL_SURFACE('',#490,0.0025);
#24=CIRCLE('',#446,0.0025);
#25=CIRCLE('',#447,0.0025);
#26=CIRCLE('',#449,0.0025);
#27=CIRCLE('',#450,0.0025);
#28=CIRCLE('',#452,0.0025);
#29=CIRCLE('',#453,0.0025);
#30=CIRCLE('',#455,0.0025);
#31=CIRCLE('',#456,0.0025);
#32=CIRCLE('',#460,0.0015);
#33=CIRCLE('',#461,0.0015);
#34=CIRCLE('',#462,0.0015);
#35=CIRCLE('',#463,0.0015);
#36=CIRCLE('',#465,0.0015);
#37=CIRCLE('',#466,0.0015);
#38=CIRCLE('',#467,0.0015);
#39=CIRCLE('',#468,0.0015);
#40=CIRCLE('',#470,0.0015);
#41=CIRCLE('',#471,0.0015);
#42=CIRCLE('',#472,0.0015);
#43=CIRCLE('',#473,0.0015);
#44=CIRCLE('',#475,0.0015);
#45=CIRCLE('',#476,0.0015);
#46=CIRCLE('',#477,0.0015);
#47=CIRCLE('',#478,0.0015);
#48=ORIENTED_EDGE('',*,*,#144,.T.);
#49=ORIENTED_EDGE('',*,*,#145,.F.);
#50=ORIENTED_EDGE('',*,*,#146,.F.);
#51=ORIENTED_EDGE('',*,*,#147,.T.);
#52=ORIENTED_EDGE('',*,*,#148,.F.);
#53=ORIENTED_EDGE('',*,*,#149,.T.);
#54=ORIENTED_EDGE('',*,*,#150,.T.);
#55=ORIENTED_EDGE('',*,*,#151,.F.);
#56=ORIENTED_EDGE('',*,*,#152,.F.);
#57=ORIENTED_EDGE('',*,*,#153,.T.);
#58=ORIENTED_EDGE('',*,*,#154,.T.);
#59=ORIENTED_EDGE('',*,*,#155,.F.);
#60=ORIENTED_EDGE('',*,*,#156,.T.);
#61=ORIENTED_EDGE('',*,*,#157,.F.);
#62=ORIENTED_EDGE('',*,*,#158,.F.);
#63=ORIENTED_EDGE('',*,*,#159,.T.);
#64=ORIENTED_EDGE('',*,*,#160,.T.);
#65=ORIENTED_EDGE('',*,*,#161,.F.);
#66=ORIENTED_EDGE('',*,*,#162,.T.);
#67=ORIENTED_EDGE('',*,*,#163,.F.);
#68=ORIENTED_EDGE('',*,*,#164,.F.);
#69=ORIENTED_EDGE('',*,*,#165,.T.);
#70=ORIENTED_EDGE('',*,*,#166,.F.);
#71=ORIENTED_EDGE('',*,*,#167,.T.);
#72=ORIENTED_EDGE('',*,*,#168,.T.);
#73=ORIENTED_EDGE('',*,*,#154,.F.);
#74=ORIENTED_EDGE('',*,*,#169,.F.);
#75=ORIENTED_EDGE('',*,*,#145,.T.);
#76=ORIENTED_EDGE('',*,*,#170,.F.);
#77=ORIENTED_EDGE('',*,*,#160,.F.);
#78=ORIENTED_EDGE('',*,*,#171,.T.);
#79=ORIENTED_EDGE('',*,*,#163,.T.);
#80=ORIENTED_EDGE('',*,*,#172,.F.);
#81=ORIENTED_EDGE('',*,*,#147,.F.);
#82=ORIENTED_EDGE('',*,*,#173,.T.);
#83=ORIENTED_EDGE('',*,*,#152,.T.);
#84=ORIENTED_EDGE('',*,*,#158,.T.);
#85=ORIENTED_EDGE('',*,*,#174,.T.);
#86=ORIENTED_EDGE('',*,*,#165,.F.);
#87=ORIENTED_EDGE('',*,*,#175,.F.);
#88=ORIENTED_EDGE('',*,*,#176,.F.);
#89=ORIENTED_EDGE('',*,*,#177,.F.);
#90=ORIENTED_EDGE('',*,*,#178,.F.);
#91=ORIENTED_EDGE('',*,*,#179,.F.);
#92=ORIENTED_EDGE('',*,*,#173,.F.);
#93=ORIENTED_EDGE('',*,*,#146,.T.);
#94=ORIENTED_EDGE('',*,*,#169,.T.);
#95=ORIENTED_EDGE('',*,*,#153,.F.);
#96=ORIENTED_EDGE('',*,*,#180,.T.);
#97=ORIENTED_EDGE('',*,*,#181,.T.);
#98=ORIENTED_EDGE('',*,*,#182,.T.);
#99=ORIENTED_EDGE('',*,*,#183,.T.);
#100=ORIENTED_EDGE('',*,*,#172,.T.);
#101=ORIENTED_EDGE('',*,*,#151,.T.);
#102=ORIENTED_EDGE('',*,*,#168,.F.);
#103=ORIENTED_EDGE('',*,*,#144,.F.);
#104=ORIENTED_EDGE('',*,*,#184,.T.);
#105=ORIENTED_EDGE('',*,*,#185,.T.);
#106=ORIENTED_EDGE('',*,*,#186,.T.);
#107=ORIENTED_EDGE('',*,*,#187,.T.);
#108=ORIENTED_EDGE('',*,*,#175,.T.);
#109=ORIENTED_EDGE('',*,*,#164,.T.);
#110=ORIENTED_EDGE('',*,*,#171,.F.);
#111=ORIENTED_EDGE('',*,*,#159,.F.);
#112=ORIENTED_EDGE('',*,*,#188,.F.);
#113=ORIENTED_EDGE('',*,*,#189,.F.);
#114=ORIENTED_EDGE('',*,*,#190,.F.);
#115=ORIENTED_EDGE('',*,*,#191,.F.);
#116=ORIENTED_EDGE('',*,*,#174,.F.);
#117=ORIENTED_EDGE('',*,*,#157,.T.);
#118=ORIENTED_EDGE('',*,*,#170,.T.);
#119=ORIENTED_EDGE('',*,*,#162,.F.);
#120=ORIENTED_EDGE('',*,*,#191,.T.);
#121=ORIENTED_EDGE('',*,*,#183,.F.);
#122=ORIENTED_EDGE('',*,*,#190,.T.);
#123=ORIENTED_EDGE('',*,*,#182,.F.);
#124=ORIENTED_EDGE('',*,*,#189,.T.);
#125=ORIENTED_EDGE('',*,*,#181,.F.);
#126=ORIENTED_EDGE('',*,*,#188,.T.);
#127=ORIENTED_EDGE('',*,*,#180,.F.);
#128=ORIENTED_EDGE('',*,*,#179,.T.);
#129=ORIENTED_EDGE('',*,*,#187,.F.);
#130=ORIENTED_EDGE('',*,*,#178,.T.);
#131=ORIENTED_EDGE('',*,*,#186,.F.);
#132=ORIENTED_EDGE('',*,*,#177,.T.);
#133=ORIENTED_EDGE('',*,*,#185,.F.);
#134=ORIENTED_EDGE('',*,*,#176,.T.);
#135=ORIENTED_EDGE('',*,*,#184,.F.);
#136=ORIENTED_EDGE('',*,*,#150,.F.);
#137=ORIENTED_EDGE('',*,*,#166,.T.);
#138=ORIENTED_EDGE('',*,*,#155,.T.);
#139=ORIENTED_EDGE('',*,*,#167,.F.);
#140=ORIENTED_EDGE('',*,*,#156,.F.);
#141=ORIENTED_EDGE('',*,*,#148,.T.);
#142=ORIENTED_EDGE('',*,*,#161,.T.);
#143=ORIENTED_EDGE('',*,*,#149,.F.);
#144=EDGE_CURVE('',#192,#193,#232,.T.);
#145=EDGE_CURVE('',#194,#193,#233,.T.);
#146=EDGE_CURVE('',#195,#194,#234,.T.);
#147=EDGE_CURVE('',#195,#192,#235,.T.);
#148=EDGE_CURVE('',#196,#196,#24,.F.);
#149=EDGE_CURVE('',#197,#197,#25,.T.);
#150=EDGE_CURVE('',#198,#198,#26,.T.);
#151=EDGE_CURVE('',#199,#200,#236,.T.);
#152=EDGE_CURVE('',#201,#199,#237,.T.);
#153=EDGE_CURVE('',#201,#202,#238,.T.);
#154=EDGE_CURVE('',#202,#200,#239,.T.);
#155=EDGE_CURVE('',#203,#203,#27,.T.);
#156=EDGE_CURVE('',#204,#204,#28,.F.);
#157=EDGE_CURVE('',#205,#206,#240,.T.);
#158=EDGE_CURVE('',#207,#205,#241,.T.);
#159=EDGE_CURVE('',#207,#208,#242,.T.);
#160=EDGE_CURVE('',#208,#206,#243,.T.);
#161=EDGE_CURVE('',#209,#209,#29,.T.);
#162=EDGE_CURVE('',#210,#211,#244,.T.);
#163=EDGE_CURVE('',#212,#211,#245,.T.);
#164=EDGE_CURVE('',#213,#212,#246,.T.);
#165=EDGE_CURVE('',#213,#210,#247,.T.);
#166=EDGE_CURVE('',#214,#214,#30,.F.);
#167=EDGE_CURVE('',#215,#215,#31,.T.);
#168=EDGE_CURVE('',#193,#200,#248,.T.);
#169=EDGE_CURVE('',#194,#202,#249,.T.);
#170=EDGE_CURVE('',#206,#211,#250,.T.);
#171=EDGE_CURVE('',#208,#212,#251,.T.);
#172=EDGE_CURVE('',#192,#199,#252,.T.);
#173=EDGE_CURVE('',#195,#201,#253,.T.);
#174=EDGE_CURVE('',#205,#210,#254,.T.);
#175=EDGE_CURVE('',#207,#213,#255,.T.);
#176=EDGE_CURVE('',#216,#216,#32,.T.);
#177=EDGE_CURVE('',#217,#217,#33,.T.);
#178=EDGE_CURVE('',#218,#218,#34,.T.);
#179=EDGE_CURVE('',#219,#219,#35,.T.);
#180=EDGE_CURVE('',#220,#220,#36,.T.);
#181=EDGE_CURVE('',#221,#221,#37,.T.);
#182=EDGE_CURVE('',#222,#222,#38,.T.);
#183=EDGE_CURVE('',#223,#223,#39,.T.);
#184=EDGE_CURVE('',#224,#224,#40,.T.);
#185=EDGE_CURVE('',#225,#225,#41,.T.);
#186=EDGE_CURVE('',#226,#226,#42,.T.);
#187=EDGE_CURVE('',#227,#227,#43,.T.);
#188=EDGE_CURVE('',#228,#228,#44,.T.);
#189=EDGE_CURVE('',#229,#229,#45,.T.);
#190=EDGE_CURVE('',#230,#230,#46,.T.);
#191=EDGE_CURVE('',#231,#231,#47,.T.);
#192=VERTEX_POINT('',#612);
#193=VERTEX_POINT('',#613);
#194=VERTEX_POINT('',#615);
#195=VERTEX_POINT('',#617);
#196=VERTEX_POINT('',#620);
#197=VERTEX_POINT('',#622);
#198=VERTEX_POINT('',#625);
#199=VERTEX_POINT('',#627);
#200=VERTEX_POINT('',#628);
#201=VERTEX_POINT('',#630);
#202=VERTEX_POINT('',#632);
#203=VERTEX_POINT('',#635);
#204=VERTEX_POINT('',#638);
#205=VERTEX_POINT('',#640);
#206=VERTEX_POINT('',#641);
#207=VERTEX_POINT('',#643);
#208=VERTEX_POINT('',#645);
#209=VERTEX_POINT('',#648);
#210=VERTEX_POINT('',#651);
#211=VERTEX_POINT('',#652);
#212=VERTEX_POINT('',#654);
#213=VERTEX_POINT('',#656);
#214=VERTEX_POINT('',#659);
#215=VERTEX_POINT('',#661);
#216=VERTEX_POINT('',#674);
#217=VERTEX_POINT('',#676);
#218=VERTEX_POINT('',#678);
#219=VERTEX_POINT('',#680);
#220=VERTEX_POINT('',#683);
#221=VERTEX_POINT('',#685);
#222=VERTEX_POINT('',#687);
#223=VERTEX_POINT('',#689);
#224=VERTEX_POINT('',#692);
#225=VERTEX_POINT('',#694);
#226=VERTEX_POINT('',#696);
#227=VERTEX_POINT('',#698);
#228=VERTEX_POINT('',#701);
#229=VERTEX_POINT('',#703);
#230=VERTEX_POINT('',#705);
#231=VERTEX_POINT('',#707);
#232=LINE('',#611,#256);
#233=LINE('',#614,#257);
#234=LINE('',#616,#258);
#235=LINE('',#618,#259);
#236=LINE('',#626,#260);
#237=LINE('',#629,#261);
#238=LINE('',#631,#262);
#239=LINE('',#633,#263);
#240=LINE('',#639,#264);
#241=LINE('',#642,#265);
#242=LINE('',#644,#266);
#243=LINE('',#646,#267);
#244=LINE('',#650,#268);
#245=LINE('',#653,#269);
#246=LINE('',#655,#270);
#247=LINE('',#657,#271);
#248=LINE('',#663,#272);
#249=LINE('',#664,#273);
#250=LINE('',#665,#274);
#251=LINE('',#666,#275);
#252=LINE('',#668,#276);
#253=LINE('',#669,#277);
#254=LINE('',#670,#278);
#255=LINE('',#671,#279);
#256=VECTOR('',#495,1.);
#257=VECTOR('',#496,1.);
#258=VECTOR('',#497,1.);
#259=VECTOR('',#498,1.);
#260=VECTOR('',#507,1.);
#261=VECTOR('',#508,1.);
#262=VECTOR('',#509,1.);
#263=VECTOR('',#510,1.);
#264=VECTOR('',#517,1.);
#265=VECTOR('',#518,1.);
#266=VECTOR('',#519,1.);
#267=VECTOR('',#520,1.);
#268=VECTOR('',#525,1.);
#269=VECTOR('',#526,1.);
#270=VECTOR('',#527,1.);
#271=VECTOR('',#528,1.);
#272=VECTOR('',#535,1.);
#273=VECTOR('',#536,1.);
#274=VECTOR('',#537,1.);
#275=VECTOR('',#538,1.);
#276=VECTOR('',#541,1.);
#277=VECTOR('',#542,1.);
#278=VECTOR('',#543,1.);
#279=VECTOR('',#544,1.);
#280=EDGE_LOOP('',(#48,#49,#50,#51));
#281=EDGE_LOOP('',(#52));
#282=EDGE_LOOP('',(#53));
#283=EDGE_LOOP('',(#54));
#284=EDGE_LOOP('',(#55,#56,#57,#58));
#285=EDGE_LOOP('',(#59));
#286=EDGE_LOOP('',(#60));
#287=EDGE_LOOP('',(#61,#62,#63,#64));
#288=EDGE_LOOP('',(#65));
#289=EDGE_LOOP('',(#66,#67,#68,#69));
#290=EDGE_LOOP('',(#70));
#291=EDGE_LOOP('',(#71));
#292=EDGE_LOOP('',(#72,#73,#74,#75));
#293=EDGE_LOOP('',(#76,#77,#78,#79));
#294=EDGE_LOOP('',(#80,#81,#82,#83));
#295=EDGE_LOOP('',(#84,#85,#86,#87));
#296=EDGE_LOOP('',(#88));
#297=EDGE_LOOP('',(#89));
#298=EDGE_LOOP('',(#90));
#299=EDGE_LOOP('',(#91));
#300=EDGE_LOOP('',(#92,#93,#94,#95));
#301=EDGE_LOOP('',(#96));
#302=EDGE_LOOP('',(#97));
#303=EDGE_LOOP('',(#98));
#304=EDGE_LOOP('',(#99));
#305=EDGE_LOOP('',(#100,#101,#102,#103));
#306=EDGE_LOOP('',(#104));
#307=EDGE_LOOP('',(#105));
#308=EDGE_LOOP('',(#106));
#309=EDGE_LOOP('',(#107));
#310=EDGE_LOOP('',(#108,#109,#110,#111));
#311=EDGE_LOOP('',(#112));
#312=EDGE_LOOP('',(#113));
#313=EDGE_LOOP('',(#114));
#314=EDGE_LOOP('',(#115));
#315=EDGE_LOOP('',(#116,#117,#118,#119));
#316=EDGE_LOOP('',(#120));
#317=EDGE_LOOP('',(#121));
#318=EDGE_LOOP('',(#122));
#319=EDGE_LOOP('',(#123));
#320=EDGE_LOOP('',(#124));
#321=EDGE_LOOP('',(#125));
#322=EDGE_LOOP('',(#126));
#323=EDGE_LOOP('',(#127));
#324=EDGE_LOOP('',(#128));
#325=EDGE_LOOP('',(#129));
#326=EDGE_LOOP('',(#130));
#327=EDGE_LOOP('',(#131));
#328=EDGE_LOOP('',(#132));
#329=EDGE_LOOP('',(#133));
#330=EDGE_LOOP('',(#134));
#331=EDGE_LOOP('',(#135));
#332=EDGE_LOOP('',(#136));
#333=EDGE_LOOP('',(#137));
#334=EDGE_LOOP('',(#138));
#335=EDGE_LOOP('',(#139));
#336=EDGE_LOOP('',(#140));
#337=EDGE_LOOP('',(#141));
#338=EDGE_LOOP('',(#142));
#339=EDGE_LOOP('',(#143));
#340=FACE_BOUND('',#280,.T.);
#341=FACE_BOUND('',#281,.T.);
#342=FACE_BOUND('',#282,.T.);
#343=FACE_BOUND('',#283,.T.);
#344=FACE_BOUND('',#284,.T.);
#345=FACE_BOUND('',#285,.T.);
#346=FACE_BOUND('',#286,.T.);
#347=FACE_BOUND('',#287,.T.);
#348=FACE_BOUND('',#288,.T.);
#349=FACE_BOUND('',#289,.T.);
#350=FACE_BOUND('',#290,.T.);
#351=FACE_BOUND('',#291,.T.);
#352=FACE_BOUND('',#292,.T.);
#353=FACE_BOUND('',#293,.T.);
#354=FACE_BOUND('',#294,.T.);
#355=FACE_BOUND('',#295,.T.);
#356=FACE_BOUND('',#296,.T.);
#357=FACE_BOUND('',#297,.T.);
#358=FACE_BOUND('',#298,.T.);
#359=FACE_BOUND('',#299,.T.);
#360=FACE_BOUND('',#300,.T.);
#361=FACE_BOUND('',#301,.T.);
#362=FACE_BOUND('',#302,.T.);
#363=FACE_BOUND('',#303,.T.);
#364=FACE_BOUND('',#304,.T.);
#365=FACE_BOUND('',#305,.T.);
#366=FACE_BOUND('',#306,.T.);
#367=FACE_BOUND('',#307,.T.);
#368=FACE_BOUND('',#308,.T.);
#369=FACE_BOUND('',#309,.T.);
#370=FACE_BOUND('',#310,.T.);
#371=FACE_BOUND('',#311,.T.);
#372=FACE_BOUND('',#312,.T.);
#373=FACE_BOUND('',#313,.T.);
#374=FACE_BOUND('',#314,.T.);
#375=FACE_BOUND('',#315,.T.);
#376=FACE_BOUND('',#316,.T.);
#377=FACE_BOUND('',#317,.T.);
#378=FACE_BOUND('',#318,.T.);
#379=FACE_BOUND('',#319,.T.);
#380=FACE_BOUND('',#320,.T.);
#381=FACE_BOUND('',#321,.T.);
#382=FACE_BOUND('',#322,.T.);
#383=FACE_BOUND('',#323,.T.);
#384=FACE_BOUND('',#324,.T.);
#385=FACE_BOUND('',#325,.T.);
#386=FACE_BOUND('',#326,.T.);
#387=FACE_BOUND('',#327,.T.);
#388=FACE_BOUND('',#328,.T.);
#389=FACE_BOUND('',#329,.T.);
#390=FACE_BOUND('',#330,.T.);
#391=FACE_BOUND('',#331,.T.);
#392=FACE_BOUND('',#332,.T.);
#393=FACE_BOUND('',#333,.T.);
#394=FACE_BOUND('',#334,.T.);
#395=FACE_BOUND('',#335,.T.);
#396=FACE_BOUND('',#336,.T.);
#397=FACE_BOUND('',#337,.T.);
#398=FACE_BOUND('',#338,.T.);
#399=FACE_BOUND('',#339,.T.);
#400=PLANE('',#445);
#401=PLANE('',#448);
#402=PLANE('',#451);
#403=PLANE('',#454);
#404=PLANE('',#457);
#405=PLANE('',#458);
#406=PLANE('',#459);
#407=PLANE('',#464);
#408=PLANE('',#469);
#409=PLANE('',#474);
#410=ADVANCED_FACE('',(#340,#341,#342),#400,.F.);
#411=ADVANCED_FACE('',(#343,#344,#345),#401,.T.);
#412=ADVANCED_FACE('',(#346,#347,#348),#402,.T.);
#413=ADVANCED_FACE('',(#349,#350,#351),#403,.F.);
#414=ADVANCED_FACE('',(#352,#353),#404,.F.);
#415=ADVANCED_FACE('',(#354,#355),#405,.T.);
#416=ADVANCED_FACE('',(#356,#357,#358,#359,#360),#406,.T.);
#417=ADVANCED_FACE('',(#361,#362,#363,#364,#365),#407,.F.);
#418=ADVANCED_FACE('',(#366,#367,#368,#369,#370),#408,.F.);
#419=ADVANCED_FACE('',(#371,#372,#373,#374,#375),#409,.T.);
#420=ADVANCED_FACE('',(#376,#377),#12,.F.);
#421=ADVANCED_FACE('',(#378,#379),#13,.F.);
#422=ADVANCED_FACE('',(#380,#381),#14,.F.);
#423=ADVANCED_FACE('',(#382,#383),#15,.F.);
#424=ADVANCED_FACE('',(#384,#385),#16,.F.);
#425=ADVANCED_FACE('',(#386,#387),#17,.F.);
#426=ADVANCED_FACE('',(#388,#389),#18,.F.);
#427=ADVANCED_FACE('',(#390,#391),#19,.F.);
#428=ADVANCED_FACE('',(#392,#393),#20,.F.);
#429=ADVANCED_FACE('',(#394,#395),#21,.F.);
#430=ADVANCED_FACE('',(#396,#397),#22,.F.);
#431=ADVANCED_FACE('',(#398,#399),#23,.F.);
#432=CLOSED_SHELL('',(#410,#411,#412,#413,#414,#415,#416,#417,#418,#419,
#420,#421,#422,#423,#424,#425,#426,#427,#428,#429,#430,#431));
#433=STYLED_ITEM('',(#434),#441);
#434=PRESENTATION_STYLE_ASSIGNMENT((#435));
#435=SURFACE_STYLE_USAGE(.BOTH.,#436);
#436=SURFACE_SIDE_STYLE('',(#437));
#437=SURFACE_STYLE_FILL_AREA(#438);
#438=FILL_AREA_STYLE('',(#439));
#439=FILL_AREA_STYLE_COLOUR('',#440);
#440=COLOUR_RGB('',0.615686274509804,0.811764705882353,0.929411764705882);
#441=MANIFOLD_SOLID_BREP('Support',#432);
#442=SHAPE_DEFINITION_REPRESENTATION(#726,#443);
#443=SHAPE_REPRESENTATION('Support',(#444),#721);
#444=AXIS2_PLACEMENT_3D('',#609,#491,#492);
#445=AXIS2_PLACEMENT_3D('',#610,#493,#494);
#446=AXIS2_PLACEMENT_3D('',#619,#499,#500);
#447=AXIS2_PLACEMENT_3D('',#621,#501,#502);
#448=AXIS2_PLACEMENT_3D('',#623,#503,#504);
#449=AXIS2_PLACEMENT_3D('',#624,#505,#506);
#450=AXIS2_PLACEMENT_3D('',#634,#511,#512);
#451=AXIS2_PLACEMENT_3D('',#636,#513,#514);
#452=AXIS2_PLACEMENT_3D('',#637,#515,#516);
#453=AXIS2_PLACEMENT_3D('',#647,#521,#522);
#454=AXIS2_PLACEMENT_3D('',#649,#523,#524);
#455=AXIS2_PLACEMENT_3D('',#658,#529,#530);
#456=AXIS2_PLACEMENT_3D('',#660,#531,#532);
#457=AXIS2_PLACEMENT_3D('',#662,#533,#534);
#458=AXIS2_PLACEMENT_3D('',#667,#539,#540);
#459=AXIS2_PLACEMENT_3D('',#672,#545,#546);
#460=AXIS2_PLACEMENT_3D('',#673,#547,#548);
#461=AXIS2_PLACEMENT_3D('',#675,#549,#550);
#462=AXIS2_PLACEMENT_3D('',#677,#551,#552);
#463=AXIS2_PLACEMENT_3D('',#679,#553,#554);
#464=AXIS2_PLACEMENT_3D('',#681,#555,#556);
#465=AXIS2_PLACEMENT_3D('',#682,#557,#558);
#466=AXIS2_PLACEMENT_3D('',#684,#559,#560);
#467=AXIS2_PLACEMENT_3D('',#686,#561,#562);
#468=AXIS2_PLACEMENT_3D('',#688,#563,#564);
#469=AXIS2_PLACEMENT_3D('',#690,#565,#566);
#470=AXIS2_PLACEMENT_3D('',#691,#567,#568);
#471=AXIS2_PLACEMENT_3D('',#693,#569,#570);
#472=AXIS2_PLACEMENT_3D('',#695,#571,#572);
#473=AXIS2_PLACEMENT_3D('',#697,#573,#574);
#474=AXIS2_PLACEMENT_3D('',#699,#575,#576);
#475=AXIS2_PLACEMENT_3D('',#700,#577,#578);
#476=AXIS2_PLACEMENT_3D('',#702,#579,#580);
#477=AXIS2_PLACEMENT_3D('',#704,#581,#582);
#478=AXIS2_PLACEMENT_3D('',#706,#583,#584);
#479=AXIS2_PLACEMENT_3D('',#708,#585,#586);
#480=AXIS2_PLACEMENT_3D('',#709,#587,#588);
#481=AXIS2_PLACEMENT_3D('',#710,#589,#590);
#482=AXIS2_PLACEMENT_3D('',#711,#591,#592);
#483=AXIS2_PLACEMENT_3D('',#712,#593,#594);
#484=AXIS2_PLACEMENT_3D('',#713,#595,#596);
#485=AXIS2_PLACEMENT_3D('',#714,#597,#598);
#486=AXIS2_PLACEMENT_3D('',#715,#599,#600);
#487=AXIS2_PLACEMENT_3D('',#716,#601,#602);
#488=AXIS2_PLACEMENT_3D('',#717,#603,#604);
#489=AXIS2_PLACEMENT_3D('',#718,#605,#606);
#490=AXIS2_PLACEMENT_3D('',#719,#607,#608);
#491=DIRECTION('',(0.,0.,1.));
#492=DIRECTION('',(1.,0.,0.));
#493=DIRECTION('',(-1.21972744404619E-16,-7.12187482180272E-33,-1.));
#494=DIRECTION('',(-1.,0.,1.21972744404619E-16));
#495=DIRECTION('',(1.,5.83890676279069E-17,-1.21972744404619E-16));
#496=DIRECTION('',(5.83890676279069E-17,-1.,0.));
#497=DIRECTION('',(1.,5.83890676279069E-17,-1.21972744404619E-16));
#498=DIRECTION('',(5.83890676279069E-17,-1.,0.));
#499=DIRECTION('',(-1.21972744404619E-16,-7.12187482180272E-33,-1.));
#500=DIRECTION('',(-1.,0.,1.21972744404619E-16));
#501=DIRECTION('',(-1.21972744404619E-16,-7.12187482180272E-33,-1.));
#502=DIRECTION('',(-1.,0.,1.21972744404619E-16));
#503=DIRECTION('',(-1.21972744404619E-16,-7.12187482180272E-33,-1.));
#504=DIRECTION('',(-1.,0.,1.21972744404619E-16));
#505=DIRECTION('',(1.21972744404619E-16,7.12187482180272E-33,1.));
#506=DIRECTION('',(-1.,0.,1.21972744404619E-16));
#507=DIRECTION('',(1.,5.83890676279069E-17,-1.21972744404619E-16));
#508=DIRECTION('',(5.83890676279069E-17,-1.,0.));
#509=DIRECTION('',(1.,5.83890676279069E-17,-1.21972744404619E-16));
#510=DIRECTION('',(5.83890676279069E-17,-1.,0.));
#511=DIRECTION('',(-1.21972744404619E-16,-7.12187482180272E-33,-1.));
#512=DIRECTION('',(-1.,0.,1.21972744404619E-16));
#513=DIRECTION('',(-1.21972744404619E-16,-7.12187482180272E-33,-1.));
#514=DIRECTION('',(-1.,0.,1.21972744404619E-16));
#515=DIRECTION('',(-1.21972744404619E-16,-7.12187482180272E-33,-1.));
#516=DIRECTION('',(-1.,0.,1.21972744404619E-16));
#517=DIRECTION('',(1.,5.83890676279069E-17,-1.21972744404619E-16));
#518=DIRECTION('',(5.83890676279069E-17,-1.,0.));
#519=DIRECTION('',(1.,5.83890676279069E-17,-1.21972744404619E-16));
#520=DIRECTION('',(5.83890676279069E-17,-1.,0.));
#521=DIRECTION('',(-1.21972744404619E-16,-7.12187482180272E-33,-1.));
#522=DIRECTION('',(-1.,0.,1.21972744404619E-16));
#523=DIRECTION('',(-1.21972744404619E-16,-7.12187482180272E-33,-1.));
#524=DIRECTION('',(-1.,0.,1.21972744404619E-16));
#525=DIRECTION('',(1.,5.83890676279069E-17,-1.21972744404619E-16));
#526=DIRECTION('',(5.83890676279069E-17,-1.,0.));
#527=DIRECTION('',(1.,5.83890676279069E-17,-1.21972744404619E-16));
#528=DIRECTION('',(5.83890676279069E-17,-1.,0.));
#529=DIRECTION('',(-1.21972744404619E-16,-7.12187482180272E-33,-1.));
#530=DIRECTION('',(-1.,0.,1.21972744404619E-16));
#531=DIRECTION('',(-1.21972744404619E-16,-7.12187482180272E-33,-1.));
#532=DIRECTION('',(-1.,0.,1.21972744404619E-16));
#533=DIRECTION('',(-1.,-5.83890676279069E-17,0.));
#534=DIRECTION('',(5.83890676279069E-17,-1.,0.));
#535=DIRECTION('',(0.,0.,-1.));
#536=DIRECTION('',(0.,0.,-1.));
#537=DIRECTION('',(0.,0.,-1.));
#538=DIRECTION('',(0.,0.,-1.));
#539=DIRECTION('',(-1.,-5.83890676279069E-17,0.));
#540=DIRECTION('',(5.83890676279069E-17,-1.,0.));
#541=DIRECTION('',(0.,0.,-1.));
#542=DIRECTION('',(0.,0.,-1.));
#543=DIRECTION('',(0.,0.,-1.));
#544=DIRECTION('',(0.,0.,-1.));
#545=DIRECTION('',(-5.83890676279069E-17,1.,0.));
#546=DIRECTION('',(-1.,-5.83890676279069E-17,0.));
#547=DIRECTION('',(-5.83890676279069E-17,1.,0.));
#548=DIRECTION('',(-1.,-5.83890676279069E-17,0.));
#549=DIRECTION('',(-5.83890676279069E-17,1.,0.));
#550=DIRECTION('',(-1.,-5.83890676279069E-17,0.));
#551=DIRECTION('',(-5.83890676279069E-17,1.,0.));
#552=DIRECTION('',(-1.,-5.83890676279069E-17,0.));
#553=DIRECTION('',(-5.83890676279069E-17,1.,0.));
#554=DIRECTION('',(-1.,-5.83890676279069E-17,0.));
#555=DIRECTION('',(-5.83890676279069E-17,1.,0.));
#556=DIRECTION('',(-1.,-5.83890676279069E-17,0.));
#557=DIRECTION('',(-5.83890676279069E-17,1.,0.));
#558=DIRECTION('',(-1.,-5.83890676279069E-17,0.));
#559=DIRECTION('',(-5.83890676279069E-17,1.,0.));
#560=DIRECTION('',(-1.,-5.83890676279069E-17,0.));
#561=DIRECTION('',(-5.83890676279069E-17,1.,0.));
#562=DIRECTION('',(-1.,-5.83890676279069E-17,0.));
#563=DIRECTION('',(-5.83890676279069E-17,1.,0.));
#564=DIRECTION('',(-1.,-5.83890676279069E-17,0.));
#565=DIRECTION('',(-5.83890676279069E-17,1.,0.));
#566=DIRECTION('',(-1.,-5.83890676279069E-17,0.));
#567=DIRECTION('',(-5.83890676279069E-17,1.,0.));
#568=DIRECTION('',(-1.,-5.83890676279069E-17,0.));
#569=DIRECTION('',(-5.83890676279069E-17,1.,0.));
#570=DIRECTION('',(-1.,-5.83890676279069E-17,0.));
#571=DIRECTION('',(-5.83890676279069E-17,1.,0.));
#572=DIRECTION('',(-1.,-5.83890676279069E-17,0.));
#573=DIRECTION('',(-5.83890676279069E-17,1.,0.));
#574=DIRECTION('',(-1.,-5.83890676279069E-17,0.));
#575=DIRECTION('',(-5.83890676279069E-17,1.,0.));
#576=DIRECTION('',(-1.,-5.83890676279069E-17,0.));
#577=DIRECTION('',(-5.83890676279069E-17,1.,0.));
#578=DIRECTION('',(-1.,-5.83890676279069E-17,0.));
#579=DIRECTION('',(-5.83890676279069E-17,1.,0.));
#580=DIRECTION('',(-1.,-5.83890676279069E-17,0.));
#581=DIRECTION('',(-5.83890676279069E-17,1.,0.));
#582=DIRECTION('',(-1.,-5.83890676279069E-17,0.));
#583=DIRECTION('',(-5.83890676279069E-17,1.,0.));
#584=DIRECTION('',(-1.,-5.83890676279069E-17,0.));
#585=DIRECTION('',(-5.83890676279069E-17,1.,0.));
#586=DIRECTION('',(-1.,-5.83890676279069E-17,0.));
#587=DIRECTION('',(-5.83890676279069E-17,1.,0.));
#588=DIRECTION('',(-1.,-5.83890676279069E-17,0.));
#589=DIRECTION('',(-5.83890676279069E-17,1.,0.));
#590=DIRECTION('',(-1.,-5.83890676279069E-17,0.));
#591=DIRECTION('',(-5.83890676279069E-17,1.,0.));
#592=DIRECTION('',(-1.,-5.83890676279069E-17,0.));
#593=DIRECTION('',(-5.83890676279069E-17,1.,0.));
#594=DIRECTION('',(-1.,-5.83890676279069E-17,0.));
#595=DIRECTION('',(-5.83890676279069E-17,1.,0.));
#596=DIRECTION('',(-1.,-5.83890676279069E-17,0.));
#597=DIRECTION('',(-5.83890676279069E-17,1.,0.));
#598=DIRECTION('',(-1.,-5.83890676279069E-17,0.));
#599=DIRECTION('',(-5.83890676279069E-17,1.,0.));
#600=DIRECTION('',(-1.,-5.83890676279069E-17,0.));
#601=DIRECTION('',(-1.21972744404619E-16,-7.12187482180272E-33,-1.));
#602=DIRECTION('',(-1.,0.,1.21972744404619E-16));
#603=DIRECTION('',(-1.21972744404619E-16,-7.12187482180272E-33,-1.));
#604=DIRECTION('',(-1.,0.,1.21972744404619E-16));
#605=DIRECTION('',(-1.21972744404619E-16,-7.12187482180272E-33,-1.));
#606=DIRECTION('',(-1.,0.,1.21972744404619E-16));
#607=DIRECTION('',(-1.21972744404619E-16,-7.12187482180272E-33,-1.));
#608=DIRECTION('',(-1.,0.,1.21972744404619E-16));
#609=CARTESIAN_POINT('',(0.,0.,0.));
#610=CARTESIAN_POINT('',(0.1,0.075085,0.015));
#611=CARTESIAN_POINT('',(0.1,0.045085,0.015));
#612=CARTESIAN_POINT('',(-0.22,0.045085,0.015));
#613=CARTESIAN_POINT('',(0.42,0.045085,0.015));
#614=CARTESIAN_POINT('',(0.42,0.075085,0.015));
#615=CARTESIAN_POINT('',(0.42,0.075085,0.015));
#616=CARTESIAN_POINT('',(0.1,0.075085,0.015));
#617=CARTESIAN_POINT('',(-0.22,0.075085,0.015));
#618=CARTESIAN_POINT('',(-0.22,0.075085,0.015));
#619=CARTESIAN_POINT('',(0.18,0.067085,0.015));
#620=CARTESIAN_POINT('',(0.1775,0.067085,0.015));
#621=CARTESIAN_POINT('',(0.22,0.067085,0.015));
#622=CARTESIAN_POINT('',(0.2175,0.067085,0.015));
#623=CARTESIAN_POINT('',(0.1,0.075085,-0.015));
#624=CARTESIAN_POINT('',(0.18,0.067085,-0.015));
#625=CARTESIAN_POINT('',(0.1775,0.067085,-0.015));
#626=CARTESIAN_POINT('',(0.1,0.045085,-0.015));
#627=CARTESIAN_POINT('',(-0.22,0.045085,-0.015));
#628=CARTESIAN_POINT('',(0.42,0.045085,-0.015));
#629=CARTESIAN_POINT('',(-0.22,0.075085,-0.015));
#630=CARTESIAN_POINT('',(-0.22,0.075085,-0.015));
#631=CARTESIAN_POINT('',(0.1,0.075085,-0.015));
#632=CARTESIAN_POINT('',(0.42,0.075085,-0.015));
#633=CARTESIAN_POINT('',(0.42,0.075085,-0.015));
#634=CARTESIAN_POINT('',(0.22,0.067085,-0.015));
#635=CARTESIAN_POINT('',(0.2175,0.067085,-0.015));
#636=CARTESIAN_POINT('',(0.1,0.075085,0.013));
#637=CARTESIAN_POINT('',(0.18,0.067085,0.013));
#638=CARTESIAN_POINT('',(0.1775,0.067085,0.013));
#639=CARTESIAN_POINT('',(0.1,0.047085,0.013));
#640=CARTESIAN_POINT('',(-0.22,0.047085,0.013));
#641=CARTESIAN_POINT('',(0.42,0.047085,0.0129999999999998));
#642=CARTESIAN_POINT('',(-0.22,0.075085,0.013));
#643=CARTESIAN_POINT('',(-0.22,0.073085,0.013));
#644=CARTESIAN_POINT('',(0.1,0.073085,0.013));
#645=CARTESIAN_POINT('',(0.42,0.073085,0.0129999999999998));
#646=CARTESIAN_POINT('',(0.42,0.075085,0.0129999999999998));
#647=CARTESIAN_POINT('',(0.22,0.067085,0.013));
#648=CARTESIAN_POINT('',(0.2175,0.067085,0.013));
#649=CARTESIAN_POINT('',(0.1,0.075085,-0.013));
#650=CARTESIAN_POINT('',(0.1,0.047085,-0.013));
#651=CARTESIAN_POINT('',(-0.22,0.047085,-0.013));
#652=CARTESIAN_POINT('',(0.42,0.047085,-0.0130000000000001));
#653=CARTESIAN_POINT('',(0.42,0.075085,-0.0130000000000001));
#654=CARTESIAN_POINT('',(0.42,0.073085,-0.0130000000000001));
#655=CARTESIAN_POINT('',(0.1,0.073085,-0.013));
#656=CARTESIAN_POINT('',(-0.22,0.073085,-0.013));
#657=CARTESIAN_POINT('',(-0.22,0.075085,-0.013));
#658=CARTESIAN_POINT('',(0.18,0.067085,-0.0130000000000001));
#659=CARTESIAN_POINT('',(0.1775,0.067085,-0.0130000000000001));
#660=CARTESIAN_POINT('',(0.22,0.067085,-0.0130000000000001));
#661=CARTESIAN_POINT('',(0.2175,0.067085,-0.0130000000000001));
#662=CARTESIAN_POINT('',(0.42,0.075085,-4.42354486374086E-17));
#663=CARTESIAN_POINT('',(0.42,0.045085,-4.42354486374086E-17));
#664=CARTESIAN_POINT('',(0.42,0.075085,-4.42354486374086E-17));
#665=CARTESIAN_POINT('',(0.42,0.047085,-4.42354486374086E-17));
#666=CARTESIAN_POINT('',(0.42,0.073085,-4.42354486374086E-17));
#667=CARTESIAN_POINT('',(-0.22,0.075085,3.29597460435593E-17));
#668=CARTESIAN_POINT('',(-0.22,0.045085,3.29597460435593E-17));
#669=CARTESIAN_POINT('',(-0.22,0.075085,3.29597460435593E-17));
#670=CARTESIAN_POINT('',(-0.22,0.047085,3.29597460435593E-17));
#671=CARTESIAN_POINT('',(-0.22,0.073085,3.29597460435593E-17));
#672=CARTESIAN_POINT('',(-4.38414314284139E-18,0.075085,0.));
#673=CARTESIAN_POINT('',(-0.2,0.075085,3.09176772088505E-17));
#674=CARTESIAN_POINT('',(-0.2015,0.075085,3.09176772088505E-17));
#675=CARTESIAN_POINT('',(-4.35375724280242E-18,0.075085,6.42474122590342E-18));
#676=CARTESIAN_POINT('',(-0.0015,0.075085,6.42474122590342E-18));
#677=CARTESIAN_POINT('',(0.2,0.075085,-1.22983698432583E-16));
#678=CARTESIAN_POINT('',(0.1985,0.075085,-1.22983698432583E-16));
#679=CARTESIAN_POINT('',(0.4,0.075085,-4.25611307399907E-17));
#680=CARTESIAN_POINT('',(0.3985,0.075085,-4.25611307399907E-17));
#681=CARTESIAN_POINT('',(-2.63247111400418E-18,0.045085,0.));
#682=CARTESIAN_POINT('',(-0.2,0.045085,3.09176772088505E-17));
#683=CARTESIAN_POINT('',(-0.2015,0.045085,3.09176772088505E-17));
#684=CARTESIAN_POINT('',(-2.60208521396521E-18,0.045085,6.42474122590342E-18));
#685=CARTESIAN_POINT('',(-0.0015,0.045085,6.42474122590342E-18));
#686=CARTESIAN_POINT('',(0.2,0.045085,-1.22983698432583E-16));
#687=CARTESIAN_POINT('',(0.1985,0.045085,-1.22983698432583E-16));
#688=CARTESIAN_POINT('',(0.4,0.045085,-4.25611307399907E-17));
#689=CARTESIAN_POINT('',(0.3985,0.045085,-4.25611307399907E-17));
#690=CARTESIAN_POINT('',(-4.26736500758557E-18,0.073085,0.));
#691=CARTESIAN_POINT('',(-0.2,0.073085,3.09176772088505E-17));
#692=CARTESIAN_POINT('',(-0.2015,0.073085,3.09176772088505E-17));
#693=CARTESIAN_POINT('',(-4.2369791075466E-18,0.073085,6.42474122590342E-18));
#694=CARTESIAN_POINT('',(-0.0015,0.073085,6.42474122590342E-18));
#695=CARTESIAN_POINT('',(0.2,0.073085,-1.22983698432583E-16));
#696=CARTESIAN_POINT('',(0.1985,0.073085,-1.22983698432583E-16));
#697=CARTESIAN_POINT('',(0.4,0.073085,-4.25611307399907E-17));
#698=CARTESIAN_POINT('',(0.3985,0.073085,-4.25611307399907E-17));
#699=CARTESIAN_POINT('',(-2.74924924925999E-18,0.047085,0.));
#700=CARTESIAN_POINT('',(-0.2,0.047085,3.09176772088505E-17));
#701=CARTESIAN_POINT('',(-0.2015,0.047085,3.09176772088505E-17));
#702=CARTESIAN_POINT('',(-2.71886334922102E-18,0.047085,6.42474122590342E-18));
#703=CARTESIAN_POINT('',(-0.0015,0.047085,6.42474122590342E-18));
#704=CARTESIAN_POINT('',(0.2,0.047085,-1.22983698432583E-16));
#705=CARTESIAN_POINT('',(0.1985,0.047085,-1.22983698432583E-16));
#706=CARTESIAN_POINT('',(0.4,0.047085,-4.25611307399907E-17));
#707=CARTESIAN_POINT('',(0.3985,0.047085,-4.25611307399907E-17));
#708=CARTESIAN_POINT('',(0.4,0.040085,-4.25611307399907E-17));
#709=CARTESIAN_POINT('',(0.2,0.040085,-1.22983698432583E-16));
#710=CARTESIAN_POINT('',(-2.31013987582567E-18,0.040085,6.42474122590342E-18));
#711=CARTESIAN_POINT('',(-0.2,0.040085,3.09176772088505E-17));
#712=CARTESIAN_POINT('',(0.4,0.040085,-4.25611307399907E-17));
#713=CARTESIAN_POINT('',(0.2,0.040085,-1.22983698432583E-16));
#714=CARTESIAN_POINT('',(-2.31013987582567E-18,0.040085,6.42474122590342E-18));
#715=CARTESIAN_POINT('',(-0.2,0.040085,3.09176772088505E-17));
#716=CARTESIAN_POINT('',(0.18,0.067085,1.2614487548993));
#717=CARTESIAN_POINT('',(0.22,0.067085,1.2614487548993));
#718=CARTESIAN_POINT('',(0.18,0.067085,1.2614487548993));
#719=CARTESIAN_POINT('',(0.22,0.067085,1.2614487548993));
#720=MECHANICAL_DESIGN_GEOMETRIC_PRESENTATION_REPRESENTATION('',(#433),
#721);
#721=(
GEOMETRIC_REPRESENTATION_CONTEXT(3)
GLOBAL_UNCERTAINTY_ASSIGNED_CONTEXT((#722))
GLOBAL_UNIT_ASSIGNED_CONTEXT((#725,#724,#723))
REPRESENTATION_CONTEXT('Support','TOP_LEVEL_ASSEMBLY_PART')
);
#722=UNCERTAINTY_MEASURE_WITH_UNIT(LENGTH_MEASURE(1.E-8),#725,
'DISTANCE_ACCURACY_VALUE','Maximum Tolerance applied to model');
#723=(
NAMED_UNIT(*)
SI_UNIT($,.STERADIAN.)
SOLID_ANGLE_UNIT()
);
#724=(
NAMED_UNIT(*)
PLANE_ANGLE_UNIT()
SI_UNIT($,.RADIAN.)
);
#725=(
LENGTH_UNIT()
NAMED_UNIT(*)
SI_UNIT($,.METRE.)
);
#726=PRODUCT_DEFINITION_SHAPE('','',#727);
#727=PRODUCT_DEFINITION('','',#729,#728);
#728=PRODUCT_DEFINITION_CONTEXT('',#735,'design');
#729=PRODUCT_DEFINITION_FORMATION_WITH_SPECIFIED_SOURCE('','',#731,
 .NOT_KNOWN.);
#730=PRODUCT_RELATED_PRODUCT_CATEGORY('','',(#731));
#731=PRODUCT('Support','Support','Support',(#733));
#732=PRODUCT_CATEGORY('','');
#733=PRODUCT_CONTEXT('',#735,'mechanical');
#734=APPLICATION_PROTOCOL_DEFINITION('international standard',
'ap242_managed_model_based_3d_engineering',2011,#735);
#735=APPLICATION_CONTEXT('managed model based 3d engineering');
ENDSEC;
END-ISO-10303-21;
