ISO-10303-21;
HEADER;
/* Generated by software containing ST-Developer
 * from STEP Tools, Inc. (www.steptools.com) 
 */
/* OPTION: using custom renumber hook */

FILE_DESCRIPTION(
/* description */ ('STEP AP242',
'CAx-IF Rec.Pracs.---Representation and Presentation of Product Manufa
cturing Information (PMI)---4.0---2014-10-13',
'CAx-IF Rec.Pracs.---3D Tessellated Geometry---0.4---2014-09-14','2;1',
'CAx-IF Rec.Pracs.---User Defined Attributes---1.5---2016-08-15'),
/* implementation_level */ '2;1');

FILE_NAME(
/* name */ '69062bdcd49f16a08f539459',
/* time_stamp */ '2025-11-01T15:48:45Z',
/* author */ (''),
/* organization */ (''),
/* preprocessor_version */ 'ST-DEVELOPER v20',
/* originating_system */ 'ONSHAPE BY PTC INC, 1.206',
/* authorisation */ '  ');

FILE_SCHEMA (('AP242_MANAGED_MODEL_BASED_3D_ENGINEERING_MIM_LF { 1 0 10303 442 1 1 4 }'));
ENDSEC;

DATA;
#10=SHAPE_REPRESENTATION_RELATIONSHIP('','',#243,#11);
#11=ADVANCED_BREP_SHAPE_REPRESENTATION('',(#241),#381);
#12=LINE('',#326,#36);
#13=LINE('',#329,#37);
#14=LINE('',#331,#38);
#15=LINE('',#333,#39);
#16=LINE('',#334,#40);
#17=LINE('',#337,#41);
#18=LINE('',#339,#42);
#19=LINE('',#341,#43);
#20=LINE('',#343,#44);
#21=LINE('',#346,#45);
#22=LINE('',#348,#46);
#23=LINE('',#350,#47);
#24=LINE('',#351,#48);
#25=LINE('',#354,#49);
#26=LINE('',#356,#50);
#27=LINE('',#358,#51);
#28=LINE('',#362,#52);
#29=LINE('',#363,#53);
#30=LINE('',#365,#54);
#31=LINE('',#366,#55);
#32=LINE('',#372,#56);
#33=LINE('',#373,#57);
#34=LINE('',#375,#58);
#35=LINE('',#376,#59);
#36=VECTOR('',#271,1.);
#37=VECTOR('',#272,1.);
#38=VECTOR('',#273,1.);
#39=VECTOR('',#274,1.);
#40=VECTOR('',#275,1.);
#41=VECTOR('',#276,1.);
#42=VECTOR('',#277,1.);
#43=VECTOR('',#278,1.);
#44=VECTOR('',#281,1.);
#45=VECTOR('',#282,1.);
#46=VECTOR('',#283,1.);
#47=VECTOR('',#284,1.);
#48=VECTOR('',#285,1.);
#49=VECTOR('',#286,1.);
#50=VECTOR('',#287,1.);
#51=VECTOR('',#288,1.);
#52=VECTOR('',#293,1.);
#53=VECTOR('',#294,1.);
#54=VECTOR('',#297,1.);
#55=VECTOR('',#298,1.);
#56=VECTOR('',#307,1.);
#57=VECTOR('',#308,1.);
#58=VECTOR('',#311,1.);
#59=VECTOR('',#312,1.);
#60=PLANE('',#248);
#61=PLANE('',#249);
#62=PLANE('',#250);
#63=PLANE('',#252);
#64=PLANE('',#253);
#65=PLANE('',#254);
#66=PLANE('',#255);
#67=PLANE('',#257);
#68=PLANE('',#258);
#69=PLANE('',#259);
#70=ORIENTED_EDGE('',*,*,#126,.T.);
#71=ORIENTED_EDGE('',*,*,#127,.F.);
#72=ORIENTED_EDGE('',*,*,#128,.F.);
#73=ORIENTED_EDGE('',*,*,#129,.F.);
#74=ORIENTED_EDGE('',*,*,#130,.T.);
#75=ORIENTED_EDGE('',*,*,#131,.T.);
#76=ORIENTED_EDGE('',*,*,#132,.T.);
#77=ORIENTED_EDGE('',*,*,#133,.T.);
#78=ORIENTED_EDGE('',*,*,#134,.F.);
#79=ORIENTED_EDGE('',*,*,#135,.F.);
#80=ORIENTED_EDGE('',*,*,#136,.T.);
#81=ORIENTED_EDGE('',*,*,#137,.F.);
#82=ORIENTED_EDGE('',*,*,#138,.F.);
#83=ORIENTED_EDGE('',*,*,#139,.T.);
#84=ORIENTED_EDGE('',*,*,#140,.F.);
#85=ORIENTED_EDGE('',*,*,#141,.F.);
#86=ORIENTED_EDGE('',*,*,#142,.T.);
#87=ORIENTED_EDGE('',*,*,#143,.T.);
#88=ORIENTED_EDGE('',*,*,#126,.F.);
#89=ORIENTED_EDGE('',*,*,#144,.T.);
#90=ORIENTED_EDGE('',*,*,#145,.F.);
#91=ORIENTED_EDGE('',*,*,#139,.F.);
#92=ORIENTED_EDGE('',*,*,#146,.T.);
#93=ORIENTED_EDGE('',*,*,#129,.T.);
#94=ORIENTED_EDGE('',*,*,#147,.T.);
#95=ORIENTED_EDGE('',*,*,#131,.F.);
#96=ORIENTED_EDGE('',*,*,#148,.F.);
#97=ORIENTED_EDGE('',*,*,#137,.T.);
#98=ORIENTED_EDGE('',*,*,#146,.F.);
#99=ORIENTED_EDGE('',*,*,#138,.T.);
#100=ORIENTED_EDGE('',*,*,#148,.T.);
#101=ORIENTED_EDGE('',*,*,#130,.F.);
#102=ORIENTED_EDGE('',*,*,#145,.T.);
#103=ORIENTED_EDGE('',*,*,#128,.T.);
#104=ORIENTED_EDGE('',*,*,#147,.F.);
#105=ORIENTED_EDGE('',*,*,#136,.F.);
#106=ORIENTED_EDGE('',*,*,#127,.T.);
#107=ORIENTED_EDGE('',*,*,#149,.F.);
#108=ORIENTED_EDGE('',*,*,#150,.T.);
#109=ORIENTED_EDGE('',*,*,#132,.F.);
#110=ORIENTED_EDGE('',*,*,#151,.F.);
#111=ORIENTED_EDGE('',*,*,#141,.T.);
#112=ORIENTED_EDGE('',*,*,#152,.F.);
#113=ORIENTED_EDGE('',*,*,#143,.F.);
#114=ORIENTED_EDGE('',*,*,#153,.T.);
#115=ORIENTED_EDGE('',*,*,#134,.T.);
#116=ORIENTED_EDGE('',*,*,#151,.T.);
#117=ORIENTED_EDGE('',*,*,#135,.T.);
#118=ORIENTED_EDGE('',*,*,#153,.F.);
#119=ORIENTED_EDGE('',*,*,#142,.F.);
#120=ORIENTED_EDGE('',*,*,#150,.F.);
#121=ORIENTED_EDGE('',*,*,#140,.T.);
#122=ORIENTED_EDGE('',*,*,#152,.T.);
#123=ORIENTED_EDGE('',*,*,#133,.F.);
#124=ORIENTED_EDGE('',*,*,#144,.F.);
#125=ORIENTED_EDGE('',*,*,#149,.T.);
#126=EDGE_CURVE('',#154,#154,#174,.T.);
#127=EDGE_CURVE('',#155,#155,#175,.F.);
#128=EDGE_CURVE('',#156,#157,#12,.T.);
#129=EDGE_CURVE('',#158,#156,#13,.T.);
#130=EDGE_CURVE('',#158,#159,#14,.T.);
#131=EDGE_CURVE('',#159,#157,#15,.T.);
#132=EDGE_CURVE('',#160,#161,#16,.T.);
#133=EDGE_CURVE('',#161,#162,#17,.T.);
#134=EDGE_CURVE('',#163,#162,#18,.T.);
#135=EDGE_CURVE('',#160,#163,#19,.T.);
#136=EDGE_CURVE('',#164,#165,#20,.T.);
#137=EDGE_CURVE('',#166,#165,#21,.T.);
#138=EDGE_CURVE('',#167,#166,#22,.T.);
#139=EDGE_CURVE('',#167,#164,#23,.T.);
#140=EDGE_CURVE('',#168,#169,#24,.T.);
#141=EDGE_CURVE('',#170,#168,#25,.T.);
#142=EDGE_CURVE('',#170,#171,#26,.T.);
#143=EDGE_CURVE('',#171,#169,#27,.T.);
#144=EDGE_CURVE('',#172,#172,#176,.T.);
#145=EDGE_CURVE('',#164,#156,#28,.T.);
#146=EDGE_CURVE('',#167,#158,#29,.T.);
#147=EDGE_CURVE('',#165,#157,#30,.T.);
#148=EDGE_CURVE('',#166,#159,#31,.T.);
#149=EDGE_CURVE('',#173,#173,#177,.F.);
#150=EDGE_CURVE('',#168,#161,#32,.T.);
#151=EDGE_CURVE('',#170,#160,#33,.T.);
#152=EDGE_CURVE('',#169,#162,#34,.T.);
#153=EDGE_CURVE('',#171,#163,#35,.T.);
#154=VERTEX_POINT('',#322);
#155=VERTEX_POINT('',#324);
#156=VERTEX_POINT('',#327);
#157=VERTEX_POINT('',#328);
#158=VERTEX_POINT('',#330);
#159=VERTEX_POINT('',#332);
#160=VERTEX_POINT('',#335);
#161=VERTEX_POINT('',#336);
#162=VERTEX_POINT('',#338);
#163=VERTEX_POINT('',#340);
#164=VERTEX_POINT('',#344);
#165=VERTEX_POINT('',#345);
#166=VERTEX_POINT('',#347);
#167=VERTEX_POINT('',#349);
#168=VERTEX_POINT('',#352);
#169=VERTEX_POINT('',#353);
#170=VERTEX_POINT('',#355);
#171=VERTEX_POINT('',#357);
#172=VERTEX_POINT('',#361);
#173=VERTEX_POINT('',#371);
#174=CIRCLE('',#246,0.0016);
#175=CIRCLE('',#247,0.0016);
#176=CIRCLE('',#251,0.0016);
#177=CIRCLE('',#256,0.0016);
#178=EDGE_LOOP('',(#70));
#179=EDGE_LOOP('',(#71));
#180=EDGE_LOOP('',(#72,#73,#74,#75));
#181=EDGE_LOOP('',(#76,#77,#78,#79));
#182=EDGE_LOOP('',(#80,#81,#82,#83));
#183=EDGE_LOOP('',(#84,#85,#86,#87));
#184=EDGE_LOOP('',(#88));
#185=EDGE_LOOP('',(#89));
#186=EDGE_LOOP('',(#90,#91,#92,#93));
#187=EDGE_LOOP('',(#94,#95,#96,#97));
#188=EDGE_LOOP('',(#98,#99,#100,#101));
#189=EDGE_LOOP('',(#102,#103,#104,#105));
#190=EDGE_LOOP('',(#106));
#191=EDGE_LOOP('',(#107));
#192=EDGE_LOOP('',(#108,#109,#110,#111));
#193=EDGE_LOOP('',(#112,#113,#114,#115));
#194=EDGE_LOOP('',(#116,#117,#118,#119));
#195=EDGE_LOOP('',(#120,#121,#122,#123));
#196=EDGE_LOOP('',(#124));
#197=EDGE_LOOP('',(#125));
#198=FACE_BOUND('',#178,.T.);
#199=FACE_BOUND('',#179,.T.);
#200=FACE_BOUND('',#180,.T.);
#201=FACE_BOUND('',#181,.T.);
#202=FACE_BOUND('',#182,.T.);
#203=FACE_BOUND('',#183,.T.);
#204=FACE_BOUND('',#184,.T.);
#205=FACE_BOUND('',#185,.T.);
#206=FACE_BOUND('',#186,.T.);
#207=FACE_BOUND('',#187,.T.);
#208=FACE_BOUND('',#188,.T.);
#209=FACE_BOUND('',#189,.T.);
#210=FACE_BOUND('',#190,.T.);
#211=FACE_BOUND('',#191,.T.);
#212=FACE_BOUND('',#192,.T.);
#213=FACE_BOUND('',#193,.T.);
#214=FACE_BOUND('',#194,.T.);
#215=FACE_BOUND('',#195,.T.);
#216=FACE_BOUND('',#196,.T.);
#217=FACE_BOUND('',#197,.T.);
#218=CYLINDRICAL_SURFACE('',#245,0.0016);
#219=CYLINDRICAL_SURFACE('',#260,0.0016);
#220=ADVANCED_FACE('',(#198,#199),#218,.F.);
#221=ADVANCED_FACE('',(#200,#201),#60,.T.);
#222=ADVANCED_FACE('',(#202,#203),#61,.F.);
#223=ADVANCED_FACE('',(#204,#205,#206),#62,.T.);
#224=ADVANCED_FACE('',(#207),#63,.F.);
#225=ADVANCED_FACE('',(#208),#64,.T.);
#226=ADVANCED_FACE('',(#209),#65,.F.);
#227=ADVANCED_FACE('',(#210,#211,#212),#66,.F.);
#228=ADVANCED_FACE('',(#213),#67,.T.);
#229=ADVANCED_FACE('',(#214),#68,.F.);
#230=ADVANCED_FACE('',(#215),#69,.T.);
#231=ADVANCED_FACE('',(#216,#217),#219,.F.);
#232=CLOSED_SHELL('',(#220,#221,#222,#223,#224,#225,#226,#227,#228,#229,
#230,#231));
#233=STYLED_ITEM('',(#234),#241);
#234=PRESENTATION_STYLE_ASSIGNMENT((#235));
#235=SURFACE_STYLE_USAGE(.BOTH.,#236);
#236=SURFACE_SIDE_STYLE('',(#237));
#237=SURFACE_STYLE_FILL_AREA(#238);
#238=FILL_AREA_STYLE('',(#239));
#239=FILL_AREA_STYLE_COLOUR('',#240);
#240=COLOUR_RGB('',0.615686274509804,0.811764705882353,0.929411764705882);
#241=MANIFOLD_SOLID_BREP('Support-bar',#232);
#242=SHAPE_DEFINITION_REPRESENTATION(#386,#243);
#243=SHAPE_REPRESENTATION('Support-bar',(#244),#381);
#244=AXIS2_PLACEMENT_3D('',#319,#261,#262);
#245=AXIS2_PLACEMENT_3D('',#320,#263,#264);
#246=AXIS2_PLACEMENT_3D('',#321,#265,#266);
#247=AXIS2_PLACEMENT_3D('',#323,#267,#268);
#248=AXIS2_PLACEMENT_3D('',#325,#269,#270);
#249=AXIS2_PLACEMENT_3D('',#342,#279,#280);
#250=AXIS2_PLACEMENT_3D('',#359,#289,#290);
#251=AXIS2_PLACEMENT_3D('',#360,#291,#292);
#252=AXIS2_PLACEMENT_3D('',#364,#295,#296);
#253=AXIS2_PLACEMENT_3D('',#367,#299,#300);
#254=AXIS2_PLACEMENT_3D('',#368,#301,#302);
#255=AXIS2_PLACEMENT_3D('',#369,#303,#304);
#256=AXIS2_PLACEMENT_3D('',#370,#305,#306);
#257=AXIS2_PLACEMENT_3D('',#374,#309,#310);
#258=AXIS2_PLACEMENT_3D('',#377,#313,#314);
#259=AXIS2_PLACEMENT_3D('',#378,#315,#316);
#260=AXIS2_PLACEMENT_3D('',#379,#317,#318);
#261=DIRECTION('',(0.,0.,1.));
#262=DIRECTION('',(1.,0.,0.));
#263=DIRECTION('',(-1.,0.,0.));
#264=DIRECTION('',(0.,0.,-1.));
#265=DIRECTION('',(-1.,0.,0.));
#266=DIRECTION('',(0.,0.,1.));
#267=DIRECTION('',(1.,0.,0.));
#268=DIRECTION('',(0.,0.,-1.));
#269=DIRECTION('',(0.707106781186547,0.,0.707106781186548));
#270=DIRECTION('',(0.707106781186548,0.,-0.707106781186547));
#271=DIRECTION('',(0.707106781186548,0.,-0.707106781186547));
#272=DIRECTION('',(0.,1.,0.));
#273=DIRECTION('',(0.707106781186548,0.,-0.707106781186547));
#274=DIRECTION('',(0.,1.,0.));
#275=DIRECTION('',(0.,1.,0.));
#276=DIRECTION('',(0.707106781186548,0.,-0.707106781186547));
#277=DIRECTION('',(0.,1.,0.));
#278=DIRECTION('',(0.707106781186548,0.,-0.707106781186547));
#279=DIRECTION('',(-0.707106781186547,0.,0.707106781186548));
#280=DIRECTION('',(0.707106781186548,0.,0.707106781186547));
#281=DIRECTION('',(0.707106781186548,0.,0.707106781186547));
#282=DIRECTION('',(0.,1.,0.));
#283=DIRECTION('',(0.707106781186548,0.,0.707106781186547));
#284=DIRECTION('',(0.,1.,0.));
#285=DIRECTION('',(0.707106781186548,0.,0.707106781186547));
#286=DIRECTION('',(0.,1.,0.));
#287=DIRECTION('',(0.707106781186548,0.,0.707106781186547));
#288=DIRECTION('',(0.,1.,0.));
#289=DIRECTION('',(-1.,0.,0.));
#290=DIRECTION('',(0.,0.,1.));
#291=DIRECTION('',(1.,0.,0.));
#292=DIRECTION('',(0.,0.,-1.));
#293=DIRECTION('',(0.,0.,1.));
#294=DIRECTION('',(0.,0.,1.));
#295=DIRECTION('',(-1.,0.,5.9205579384874E-17));
#296=DIRECTION('',(5.9205579384874E-17,0.,1.));
#297=DIRECTION('',(5.9205579384874E-17,0.,1.));
#298=DIRECTION('',(5.9205579384874E-17,0.,1.));
#299=DIRECTION('',(0.,-1.,0.));
#300=DIRECTION('',(1.,0.,0.));
#301=DIRECTION('',(0.,-1.,0.));
#302=DIRECTION('',(1.,0.,0.));
#303=DIRECTION('',(-1.,0.,0.));
#304=DIRECTION('',(0.,0.,1.));
#305=DIRECTION('',(-1.,0.,0.));
#306=DIRECTION('',(0.,0.,1.));
#307=DIRECTION('',(0.,0.,1.));
#308=DIRECTION('',(0.,0.,1.));
#309=DIRECTION('',(-1.,0.,5.9205579384874E-17));
#310=DIRECTION('',(5.9205579384874E-17,0.,1.));
#311=DIRECTION('',(5.9205579384874E-17,0.,1.));
#312=DIRECTION('',(5.9205579384874E-17,0.,1.));
#313=DIRECTION('',(0.,-1.,0.));
#314=DIRECTION('',(1.,0.,0.));
#315=DIRECTION('',(0.,-1.,0.));
#316=DIRECTION('',(1.,0.,0.));
#317=DIRECTION('',(-1.,0.,0.));
#318=DIRECTION('',(0.,0.,1.));
#319=CARTESIAN_POINT('',(0.,0.,0.));
#320=CARTESIAN_POINT('',(2.12846924313949,0.,0.894));
#321=CARTESIAN_POINT('',(0.,0.,0.894));
#322=CARTESIAN_POINT('',(0.,0.,0.8956));
#323=CARTESIAN_POINT('',(0.00199999999999978,0.,0.894));
#324=CARTESIAN_POINT('',(0.00199999999999978,0.,0.8924));
#325=CARTESIAN_POINT('',(0.015,-0.015,0.894));
#326=CARTESIAN_POINT('',(0.015,0.015,0.894));
#327=CARTESIAN_POINT('',(-1.7347234759768E-16,0.015,0.909));
#328=CARTESIAN_POINT('',(0.03,0.015,0.879));
#329=CARTESIAN_POINT('',(-1.7347234759768E-16,-0.015,0.909));
#330=CARTESIAN_POINT('',(-1.7347234759768E-16,-0.015,0.909));
#331=CARTESIAN_POINT('',(0.015,-0.015,0.894));
#332=CARTESIAN_POINT('',(0.03,-0.015,0.879));
#333=CARTESIAN_POINT('',(0.03,-0.015,0.879));
#334=CARTESIAN_POINT('',(0.002,-0.015,0.907));
#335=CARTESIAN_POINT('',(0.002,-0.013,0.907));
#336=CARTESIAN_POINT('',(0.002,0.013,0.907));
#337=CARTESIAN_POINT('',(0.015,0.013,0.894));
#338=CARTESIAN_POINT('',(0.028,0.013,0.881));
#339=CARTESIAN_POINT('',(0.028,-0.015,0.881));
#340=CARTESIAN_POINT('',(0.028,-0.013,0.881));
#341=CARTESIAN_POINT('',(0.015,-0.013,0.894));
#342=CARTESIAN_POINT('',(0.015,-0.015,-0.894));
#343=CARTESIAN_POINT('',(0.015,0.015,-0.894));
#344=CARTESIAN_POINT('',(-1.75207071073657E-16,0.015,-0.909));
#345=CARTESIAN_POINT('',(0.03,0.015,-0.879));
#346=CARTESIAN_POINT('',(0.03,-0.015,-0.879));
#347=CARTESIAN_POINT('',(0.03,-0.015,-0.879));
#348=CARTESIAN_POINT('',(0.015,-0.015,-0.894));
#349=CARTESIAN_POINT('',(-1.75207071073657E-16,-0.015,-0.909));
#350=CARTESIAN_POINT('',(-1.75207071073657E-16,-0.015,-0.909));
#351=CARTESIAN_POINT('',(0.015,0.013,-0.894));
#352=CARTESIAN_POINT('',(0.002,0.013,-0.907));
#353=CARTESIAN_POINT('',(0.028,0.013,-0.881));
#354=CARTESIAN_POINT('',(0.002,-0.015,-0.907));
#355=CARTESIAN_POINT('',(0.002,-0.013,-0.907));
#356=CARTESIAN_POINT('',(0.015,-0.013,-0.894));
#357=CARTESIAN_POINT('',(0.028,-0.013,-0.881));
#358=CARTESIAN_POINT('',(0.028,-0.015,-0.881));
#359=CARTESIAN_POINT('',(0.,-0.015,0.4545));
#360=CARTESIAN_POINT('',(0.,0.,-0.894));
#361=CARTESIAN_POINT('',(0.,0.,-0.8956));
#362=CARTESIAN_POINT('',(0.,0.015,0.4545));
#363=CARTESIAN_POINT('',(0.,-0.015,0.4545));
#364=CARTESIAN_POINT('',(0.03,-0.015,-0.4395));
#365=CARTESIAN_POINT('',(0.03,0.015,-0.4395));
#366=CARTESIAN_POINT('',(0.03,-0.015,-0.4395));
#367=CARTESIAN_POINT('',(-0.00312047079205513,-0.015,0.));
#368=CARTESIAN_POINT('',(-0.00312047079205513,0.015,0.));
#369=CARTESIAN_POINT('',(0.002,-0.015,0.4545));
#370=CARTESIAN_POINT('',(0.00199999999999978,0.,-0.894));
#371=CARTESIAN_POINT('',(0.00199999999999978,0.,-0.8924));
#372=CARTESIAN_POINT('',(0.002,0.013,0.4545));
#373=CARTESIAN_POINT('',(0.002,-0.013,0.4545));
#374=CARTESIAN_POINT('',(0.028,-0.015,-0.4395));
#375=CARTESIAN_POINT('',(0.028,0.013,-0.4395));
#376=CARTESIAN_POINT('',(0.028,-0.013,-0.4395));
#377=CARTESIAN_POINT('',(-0.00312047079205513,-0.013,0.));
#378=CARTESIAN_POINT('',(-0.00312047079205513,0.013,0.));
#379=CARTESIAN_POINT('',(2.12846924313949,0.,-0.894));
#380=MECHANICAL_DESIGN_GEOMETRIC_PRESENTATION_REPRESENTATION('',(#233),
#381);
#381=(
GEOMETRIC_REPRESENTATION_CONTEXT(3)
GLOBAL_UNCERTAINTY_ASSIGNED_CONTEXT((#382))
GLOBAL_UNIT_ASSIGNED_CONTEXT((#385,#384,#383))
REPRESENTATION_CONTEXT('Support-bar','TOP_LEVEL_ASSEMBLY_PART')
);
#382=UNCERTAINTY_MEASURE_WITH_UNIT(LENGTH_MEASURE(1.E-8),#385,
'DISTANCE_ACCURACY_VALUE','Maximum Tolerance applied to model');
#383=(
NAMED_UNIT(*)
SI_UNIT($,.STERADIAN.)
SOLID_ANGLE_UNIT()
);
#384=(
NAMED_UNIT(*)
PLANE_ANGLE_UNIT()
SI_UNIT($,.RADIAN.)
);
#385=(
LENGTH_UNIT()
NAMED_UNIT(*)
SI_UNIT($,.METRE.)
);
#386=PRODUCT_DEFINITION_SHAPE('','',#387);
#387=PRODUCT_DEFINITION('','',#389,#388);
#388=PRODUCT_DEFINITION_CONTEXT('',#395,'design');
#389=PRODUCT_DEFINITION_FORMATION_WITH_SPECIFIED_SOURCE('','',#391,
 .NOT_KNOWN.);
#390=PRODUCT_RELATED_PRODUCT_CATEGORY('','',(#391));
#391=PRODUCT('Support-bar','Support-bar','Support-bar',(#393));
#392=PRODUCT_CATEGORY('','');
#393=PRODUCT_CONTEXT('',#395,'mechanical');
#394=APPLICATION_PROTOCOL_DEFINITION('international standard',
'ap242_managed_model_based_3d_engineering',2011,#395);
#395=APPLICATION_CONTEXT('managed model based 3d engineering');
ENDSEC;
END-ISO-10303-21;
